<svg width="200" height="59" viewBox="0 0 200 59" fill="none" xmlns="http://www.w3.org/2000/svg">
<path d="M192.482 58.263H7.52716C3.77733 58.263 0.744385 55.2232 0.744385 51.4649V7.54422C0.744385 3.78591 3.78652 0.746094 7.52716 0.746094H192.482C196.232 0.746094 199.265 3.79512 199.265 7.54422V51.4557C199.265 55.214 196.223 58.263 192.482 58.263Z" fill="black"/>
<path d="M66.587 16.7741L65.7507 19.5192H63.9309L67.0282 9.82861H69.2799L72.4232 19.5284H70.5299L69.6568 16.7833H66.587V16.7741ZM69.3535 15.4384L68.5906 13.0527C68.4068 12.4631 68.2506 11.7999 68.1035 11.238H68.0759C67.9289 11.7999 67.791 12.4723 67.6164 13.0527L66.872 15.4384H69.3535Z" fill="white"/>
<path d="M75.0609 12.5184L76.1914 16.0741C76.3936 16.6913 76.5315 17.2532 76.6693 17.8243H76.7153C76.8439 17.2532 77.0002 16.7005 77.1932 16.0741L78.3145 12.5184H80.1618L77.4965 19.5192H75.7594L73.1584 12.5184H75.0609Z" fill="white"/>
<path d="M87.2019 17.8427C87.2019 18.4783 87.2295 19.0955 87.3214 19.5284H85.7314L85.6027 18.7546H85.5567C85.1432 19.2981 84.4079 19.685 83.4888 19.685C82.0826 19.685 81.2922 18.6625 81.2922 17.6032C81.2922 15.853 82.8547 14.9411 85.4373 14.9595V14.8397C85.4373 14.3791 85.2535 13.6146 84.0127 13.6146C83.3234 13.6146 82.6065 13.8265 82.1378 14.1304L81.7977 12.979C82.3124 12.6658 83.2223 12.3618 84.3252 12.3618C86.5677 12.3618 87.2111 13.7896 87.2111 15.3279V17.8427H87.2019ZM85.474 16.1017C84.2241 16.0833 83.0385 16.3504 83.0385 17.4097C83.0385 18.1006 83.4796 18.4138 84.0403 18.4138C84.7572 18.4138 85.2626 17.9532 85.4281 17.4466C85.474 17.3268 85.474 17.1979 85.474 17.0689V16.1017Z" fill="white"/>
<path d="M90.5658 11.5144C89.9776 11.5144 89.5916 11.0814 89.5916 10.5656C89.5916 10.0221 89.9959 9.59839 90.5841 9.59839C91.1907 9.59839 91.5584 10.0129 91.5768 10.5656C91.5768 11.0814 91.1907 11.5144 90.5841 11.5144H90.5658ZM89.6926 19.5284V12.5277H91.4573V19.5284H89.6926Z" fill="white"/>
<path d="M93.9939 9.30359H95.7585V19.5284H93.9939V9.30359Z" fill="white"/>
<path d="M103.736 17.8427C103.736 18.4783 103.764 19.0955 103.846 19.5284H102.256L102.128 18.7546H102.082C101.668 19.2981 100.933 19.685 100.014 19.685C98.6075 19.685 97.8171 18.6625 97.8171 17.6032C97.8171 15.853 99.3796 14.9411 101.962 14.9595V14.8397C101.962 14.3791 101.778 13.6146 100.547 13.6146C99.8575 13.6146 99.1406 13.8265 98.6719 14.1304L98.3318 12.979C98.8465 12.6658 99.7564 12.3618 100.859 12.3618C103.093 12.3618 103.745 13.7896 103.745 15.3279V17.8427H103.736ZM102.008 16.1017C100.758 16.0833 99.5726 16.3504 99.5726 17.4097C99.5726 18.1006 100.014 18.4138 100.574 18.4138C101.291 18.4138 101.797 17.9532 101.962 17.4466C102.008 17.3176 102.008 17.1887 102.008 17.0597V16.1017Z" fill="white"/>
<path d="M106.227 9.30359H107.991V13.4856H108.019C108.451 12.8132 109.214 12.3618 110.262 12.3618C111.971 12.3618 113.184 13.7896 113.175 15.9175C113.175 18.4322 111.585 19.685 110.004 19.685C109.104 19.685 108.295 19.335 107.798 18.4783H107.771L107.688 19.5284H106.181C106.208 19.0494 106.236 18.2756 106.236 17.5756V9.30359H106.227ZM107.991 16.636C107.991 16.7834 108.01 16.9215 108.037 17.0505C108.221 17.769 108.837 18.2849 109.6 18.2849C110.703 18.2849 111.383 17.4098 111.383 15.982C111.383 14.7476 110.795 13.7436 109.618 13.7436C108.901 13.7436 108.24 14.2594 108.056 15.0332C108.028 15.1621 108.001 15.3187 108.001 15.4938V16.636H107.991Z" fill="white"/>
<path d="M115.252 9.30359H117.017V19.5284H115.252V9.30359Z" fill="white"/>
<path d="M120.812 16.5162C120.858 17.7782 121.842 18.3309 122.963 18.3309C123.781 18.3309 124.351 18.2019 124.902 18.0177L125.16 19.2244C124.553 19.4823 123.726 19.6666 122.724 19.6666C120.454 19.6666 119.121 18.2756 119.121 16.1293C119.121 14.1857 120.298 12.3618 122.54 12.3618C124.81 12.3618 125.555 14.2318 125.555 15.7701C125.555 16.1017 125.527 16.3596 125.5 16.5162H120.812ZM123.882 15.2819C123.901 14.6371 123.606 13.5685 122.43 13.5685C121.336 13.5685 120.877 14.5634 120.812 15.2819H123.882Z" fill="white"/>
<path d="M134.259 19.685C132.292 19.685 130.757 18.3309 130.757 16.0741C130.757 13.7712 132.264 12.3618 134.369 12.3618C136.446 12.3618 137.843 13.8265 137.843 15.9543C137.843 18.5243 136.032 19.6758 134.268 19.6758H134.259V19.685ZM134.314 18.4046C135.315 18.4046 136.023 17.4282 136.023 16.0004C136.023 14.9042 135.536 13.6422 134.332 13.6422C133.082 13.6422 132.577 14.8674 132.577 16.028C132.577 17.3821 133.248 18.4046 134.295 18.4046H134.314Z" fill="white"/>
<path d="M139.92 14.6095C139.92 13.8081 139.893 13.1264 139.865 12.5277H141.4L141.483 13.5778H141.529C141.841 13.0343 142.604 12.3711 143.771 12.3711C144.993 12.3711 146.253 13.1633 146.253 15.3741V19.5285H144.488V15.5675C144.488 14.5634 144.111 13.7989 143.155 13.7989C142.457 13.7989 141.97 14.3055 141.777 14.8306C141.722 14.978 141.694 15.1898 141.694 15.3925V19.5193H139.929V14.6095H139.92Z" fill="white"/>
<path d="M154.377 10.7222V12.5184H156.059V13.8449H154.377V16.9215C154.377 17.7874 154.607 18.2112 155.278 18.2112C155.59 18.2112 155.765 18.1927 155.967 18.1375L155.995 19.4731C155.737 19.5745 155.259 19.6574 154.717 19.6574C154.055 19.6574 153.532 19.4455 153.201 19.0863C152.815 18.6809 152.64 18.0361 152.64 17.115V13.8357H151.647V12.5092H152.64V11.2012L154.377 10.7222Z" fill="white"/>
<path d="M158.017 9.30359H159.781V13.4764H159.809C160.02 13.1448 160.324 12.8685 160.682 12.6842C161.041 12.4816 161.454 12.371 161.904 12.371C163.09 12.371 164.34 13.1632 164.34 15.4016V19.5284H162.575V15.5859C162.575 14.5818 162.199 13.7988 161.224 13.7988C160.535 13.7988 160.048 14.2594 159.846 14.7937C159.791 14.9503 159.772 15.1437 159.772 15.3279V19.5284H158.008V9.30359H158.017Z" fill="white"/>
<path d="M168.099 16.5162C168.145 17.7782 169.128 18.3309 170.249 18.3309C171.067 18.3309 171.637 18.2019 172.189 18.0177L172.446 19.2244C171.839 19.4823 171.012 19.6666 170.01 19.6666C167.74 19.6666 166.408 18.2756 166.408 16.1293C166.408 14.1857 167.584 12.3618 169.827 12.3618C172.097 12.3618 172.841 14.2318 172.841 15.7701C172.841 16.1017 172.814 16.3596 172.786 16.5162H168.099ZM171.169 15.2819C171.187 14.6371 170.893 13.5685 169.716 13.5685C168.623 13.5685 168.163 14.5634 168.099 15.2819H171.169Z" fill="white"/>
<path d="M44.6395 28.9242C44.5935 24.125 48.5547 21.7945 48.7385 21.684C46.496 18.4046 43.0127 17.9533 41.7903 17.9164C38.8677 17.6125 36.0369 19.6666 34.548 19.6666C33.0315 19.6666 30.7338 17.9441 28.2707 17.9901C25.0907 18.0454 22.1221 19.8877 20.4861 22.7433C17.1223 28.5834 19.6314 37.1594 22.8574 41.8849C24.4749 44.197 26.359 46.7762 28.8222 46.6841C31.2301 46.5828 32.1308 45.1458 35.0443 45.1458C37.9302 45.1458 38.7757 46.6841 41.294 46.6288C43.8858 46.5828 45.5126 44.3075 47.0658 41.977C48.9315 39.3241 49.676 36.7172 49.7127 36.5883C49.6484 36.579 44.6854 34.6722 44.6395 28.9242Z" fill="white"/>
<path d="M39.8787 14.8214C41.1746 13.1909 42.0661 10.9802 41.818 8.73254C39.9431 8.81545 37.5902 10.0314 36.2392 11.625C35.0444 13.0251 33.9691 15.328 34.2448 17.4835C36.3678 17.6493 38.5277 16.4242 39.8787 14.8214Z" fill="white"/>
<path d="M79.5091 46.3157H76.1453L74.3072 40.5125H67.9104L66.155 46.3157H62.8831L69.2247 26.5662H73.1399L79.5091 46.3157ZM73.7557 38.0806L72.0922 32.9221C71.9176 32.3971 71.5867 31.1535 71.0996 29.2007H71.0444C70.8514 30.0389 70.539 31.2825 70.107 32.9221L68.471 38.0806H73.7557Z" fill="white"/>
<path d="M95.8227 39.0202C95.8227 41.4428 95.1702 43.3588 93.8651 44.759C92.6979 46.0118 91.2457 46.6289 89.5087 46.6289C87.6338 46.6289 86.2919 45.9565 85.4739 44.6116H85.4188V52.1098H82.2572V36.7634C82.2572 35.2435 82.2204 33.6775 82.1377 32.0747H84.9133L85.0879 34.3315H85.1523C86.2 32.6274 87.7992 31.7799 89.9406 31.7799C91.6134 31.7799 93.0195 32.4431 94.1316 33.7696C95.2621 35.1145 95.8227 36.8555 95.8227 39.0202ZM92.606 39.1399C92.606 37.7582 92.2935 36.6068 91.6685 35.7132C90.9884 34.7737 90.0693 34.3039 88.9205 34.3039C88.1393 34.3039 87.4316 34.5618 86.7974 35.0776C86.1632 35.6027 85.7497 36.2751 85.5566 37.1134C85.4556 37.5003 85.4096 37.8227 85.4096 38.0806V40.4572C85.4096 41.4889 85.7221 42.364 86.3562 43.0733C86.9904 43.7918 87.8176 44.1418 88.8286 44.1418C90.0142 44.1418 90.9424 43.6904 91.6042 42.7693C92.2751 41.8573 92.606 40.6414 92.606 39.1399Z" fill="white"/>
<path d="M112.164 39.0202C112.164 41.4428 111.511 43.3588 110.206 44.759C109.039 46.0118 107.587 46.6289 105.85 46.6289C103.984 46.6289 102.633 45.9565 101.815 44.6116H101.76V52.1098H98.6075V36.7634C98.6075 35.2435 98.5708 33.6775 98.488 32.0747H101.264L101.438 34.3315H101.503C102.55 32.6274 104.15 31.7799 106.291 31.7799C107.964 31.7799 109.361 32.4431 110.482 33.7696C111.603 35.1145 112.164 36.8555 112.164 39.0202ZM108.947 39.1399C108.947 37.7582 108.635 36.6068 108.01 35.7132C107.33 34.7737 106.41 34.3039 105.262 34.3039C104.48 34.3039 103.773 34.5618 103.139 35.0776C102.504 35.6027 102.091 36.2751 101.898 37.1134C101.797 37.5003 101.751 37.8227 101.751 38.0806V40.4572C101.751 41.4889 102.063 42.364 102.697 43.0733C103.332 43.7918 104.15 44.1418 105.17 44.1418C106.355 44.1418 107.284 43.6904 107.945 42.7693C108.616 41.8573 108.947 40.6414 108.947 39.1399Z" fill="white"/>
<path d="M130.435 40.7796C130.435 42.4561 129.856 43.8286 128.68 44.8787C127.393 46.0302 125.61 46.6105 123.312 46.6105C121.189 46.6105 119.489 46.2052 118.202 45.3853L118.937 42.7508C120.325 43.5891 121.842 44.0128 123.505 44.0128C124.691 44.0128 125.619 43.7457 126.281 43.2114C126.943 42.6679 127.273 41.9494 127.273 41.0559C127.273 40.2545 126.998 39.5821 126.455 39.0294C125.913 38.4767 125.003 37.97 123.735 37.5003C120.288 36.2106 118.561 34.3223 118.561 31.8352C118.561 30.2139 119.167 28.8782 120.371 27.8465C121.575 26.8056 123.184 26.2898 125.196 26.2898C126.989 26.2898 128.477 26.603 129.663 27.2294L128.873 29.8086C127.761 29.2006 126.501 28.8967 125.104 28.8967C123.992 28.8967 123.128 29.173 122.503 29.7165C121.98 30.2047 121.713 30.8035 121.713 31.5035C121.713 32.2865 122.016 32.9313 122.614 33.438C123.138 33.9077 124.093 34.4144 125.481 34.9671C127.172 35.6487 128.422 36.4501 129.222 37.3713C130.031 38.274 130.435 39.4163 130.435 40.7796Z" fill="white"/>
<path d="M140.867 34.4512H137.393V41.3691C137.393 43.1285 138.008 44.0036 139.24 44.0036C139.801 44.0036 140.269 43.9576 140.637 43.8562L140.72 46.2604C140.104 46.4907 139.277 46.6105 138.266 46.6105C137.016 46.6105 136.042 46.2328 135.343 45.4682C134.645 44.7037 134.286 43.4233 134.286 41.627V34.4512H132.209V32.0746H134.286V29.4678L137.383 28.5282V32.0746H140.857V34.4512H140.867Z" fill="white"/>
<path d="M156.564 39.0846C156.564 41.277 155.939 43.0732 154.699 44.4734C153.394 45.9196 151.656 46.6381 149.497 46.6381C147.41 46.6381 145.747 45.9472 144.515 44.5563C143.274 43.1745 142.659 41.4243 142.659 39.3149C142.659 37.1041 143.293 35.2987 144.57 33.8985C145.848 32.4891 147.567 31.7891 149.726 31.7891C151.813 31.7891 153.485 32.4799 154.754 33.8709C155.967 35.2158 156.564 36.9567 156.564 39.0846ZM153.292 39.1859C153.292 37.8779 153.007 36.7449 152.447 35.8053C151.785 34.6723 150.838 34.1012 149.616 34.1012C148.348 34.1012 147.383 34.6723 146.721 35.8053C146.151 36.7449 145.875 37.8871 145.875 39.2412C145.875 40.5492 146.151 41.6823 146.721 42.6219C147.401 43.7549 148.357 44.326 149.589 44.326C150.793 44.326 151.739 43.7457 152.419 42.5942C152.998 41.6362 153.292 40.494 153.292 39.1859Z" fill="white"/>
<path d="M166.821 34.8657C166.509 34.8105 166.178 34.7828 165.829 34.7828C164.717 34.7828 163.862 35.2066 163.255 36.0448C162.731 36.7909 162.465 37.7213 162.465 38.8543V46.3249H159.312L159.34 36.5699C159.34 34.9302 159.303 33.4379 159.22 32.0838H161.968L162.088 34.8105H162.171C162.502 33.8709 163.035 33.1155 163.752 32.5536C164.45 32.047 165.213 31.7891 166.031 31.7891C166.325 31.7891 166.582 31.8075 166.821 31.8443V34.8657Z" fill="white"/>
<path d="M180.938 38.5228C180.938 39.0939 180.901 39.5637 180.828 39.9598H171.361C171.398 41.3691 171.858 42.4377 172.731 43.1838C173.53 43.847 174.56 44.1786 175.828 44.1786C177.225 44.1786 178.503 43.9576 179.661 43.5062L180.157 45.7078C178.815 46.2973 177.225 46.5921 175.387 46.5921C173.19 46.5921 171.453 45.9381 170.203 44.6392C168.954 43.3404 168.319 41.5994 168.319 39.4071C168.319 37.2608 168.908 35.4737 170.075 34.0459C171.297 32.526 172.961 31.7615 175.038 31.7615C177.087 31.7615 178.641 32.526 179.688 34.0459C180.525 35.2527 180.938 36.7449 180.938 38.5228ZM177.933 37.7029C177.951 36.7633 177.749 35.9527 177.317 35.2711C176.775 34.396 175.929 33.9538 174.799 33.9538C173.769 33.9538 172.933 34.3868 172.29 35.2434C171.766 35.9251 171.453 36.7449 171.361 37.7029H177.933Z" fill="white"/>
</svg>
