<svg width="200" height="59" viewBox="0 0 200 59" fill="none" xmlns="http://www.w3.org/2000/svg">
<path d="M192.482 58.263H7.52716C3.77733 58.263 0.744385 55.214 0.744385 51.4649V7.54422C0.744385 3.78591 3.78652 0.746094 7.52716 0.746094H192.482C196.232 0.746094 199.265 3.79512 199.265 7.54422V51.4557C199.265 55.214 196.223 58.263 192.482 58.263Z" fill="black"/>
<path d="M100.896 32.268C97.422 32.268 94.582 34.9209 94.582 38.5687C94.582 42.1981 97.4128 44.8694 100.896 44.8694C104.37 44.8694 107.21 42.1981 107.21 38.5687C107.201 34.9209 104.37 32.268 100.896 32.268ZM100.896 42.3915C98.9936 42.3915 97.3484 40.8163 97.3484 38.5687C97.3484 36.3027 98.9936 34.7459 100.896 34.7459C102.799 34.7459 104.444 36.2934 104.444 38.5687C104.444 40.8163 102.799 42.3915 100.896 42.3915ZM87.1283 32.268C83.6542 32.268 80.8143 34.9209 80.8143 38.5687C80.8143 42.1981 83.645 44.8694 87.1283 44.8694C90.6024 44.8694 93.4424 42.1981 93.4424 38.5687C93.4332 34.9209 90.6024 32.268 87.1283 32.268ZM87.1283 42.3915C85.2258 42.3915 83.5807 40.8163 83.5807 38.5687C83.5807 36.3027 85.2258 34.7459 87.1283 34.7459C89.0308 34.7459 90.676 36.2934 90.676 38.5687C90.676 40.8163 89.0308 42.3915 87.1283 42.3915ZM70.7504 34.2024V36.8738H77.1288C76.9358 38.3753 76.4395 39.4714 75.6766 40.236C74.7484 41.1664 73.2963 42.1888 70.7504 42.1888C66.8168 42.1888 63.7471 39.0109 63.7471 35.0775C63.7471 31.1442 66.8168 27.9662 70.7504 27.9662C72.8735 27.9662 74.4175 28.8045 75.5572 29.873L77.4413 27.9846C75.8421 26.4555 73.7282 25.2856 70.7504 25.2856C65.3646 25.2856 60.8428 29.6796 60.8428 35.0683C60.8428 40.4663 65.3646 44.851 70.7504 44.851C73.6547 44.851 75.8513 43.893 77.5608 42.1059C79.3254 40.3373 79.8676 37.8594 79.8676 35.8513C79.8676 35.2341 79.8217 34.6538 79.7206 34.184H70.7504V34.2024ZM137.723 36.275C137.2 34.8657 135.6 32.268 132.338 32.268C129.103 32.268 126.41 34.8196 126.41 38.5687C126.41 42.0967 129.075 44.8694 132.65 44.8694C135.536 44.8694 137.2 43.1008 137.889 42.0783L135.747 40.6505C135.031 41.7006 134.056 42.3915 132.65 42.3915C131.244 42.3915 130.242 41.7467 129.599 40.4847L138.008 37.0027L137.723 36.275ZM129.148 38.3753C129.075 35.9434 131.033 34.6998 132.439 34.6998C133.532 34.6998 134.461 35.2525 134.773 36.0355L129.148 38.3753ZM122.32 44.4917H125.086V25.9673H122.32V44.4917ZM117.789 33.6774H117.697C117.081 32.9404 115.886 32.268 114.388 32.268C111.245 32.268 108.359 35.0407 108.359 38.5963C108.359 42.1244 111.245 44.8694 114.388 44.8694C115.886 44.8694 117.081 44.197 117.697 43.4416H117.789V44.3443C117.789 46.7578 116.502 48.0474 114.434 48.0474C112.743 48.0474 111.695 46.8315 111.263 45.7998L108.855 46.8038C109.545 48.4711 111.383 50.5253 114.425 50.5253C117.66 50.5253 120.399 48.6185 120.399 43.9575V32.6457H117.779V33.6774H117.789ZM114.627 42.3915C112.725 42.3915 111.125 40.7887 111.125 38.5963C111.125 36.3764 112.725 34.7551 114.627 34.7551C116.511 34.7551 117.982 36.3764 117.982 38.5963C117.982 40.7887 116.502 42.3915 114.627 42.3915ZM150.664 25.9673H144.056V44.4917H146.813V37.4725H150.664C153.725 37.4725 156.73 35.2525 156.73 31.7245C156.73 28.1965 153.725 25.9673 150.664 25.9673ZM150.738 34.8933H146.813V28.5465H150.738C152.796 28.5465 153.973 30.2599 153.973 31.7245C153.973 33.1523 152.796 34.8933 150.738 34.8933ZM167.777 32.2312C165.783 32.2312 163.715 33.1155 162.86 35.0683L165.305 36.0908C165.829 35.0683 166.803 34.7367 167.823 34.7367C169.248 34.7367 170.7 35.5934 170.727 37.1225V37.3159C170.231 37.0304 169.156 36.5974 167.851 36.5974C165.213 36.5974 162.529 38.0529 162.529 40.7703C162.529 43.2482 164.689 44.8418 167.115 44.8418C168.972 44.8418 169.992 44.0035 170.636 43.0271H170.727V44.4549H173.393V37.3528C173.393 34.0643 170.948 32.2312 167.777 32.2312ZM167.446 42.3823C166.546 42.3823 165.286 41.9309 165.286 40.8071C165.286 39.3793 166.858 38.8266 168.209 38.8266C169.422 38.8266 169.992 39.0845 170.727 39.4438C170.516 41.1664 169.046 42.3823 167.446 42.3823ZM183.089 32.6365L179.927 40.6689H179.835L176.554 32.6365H173.586L178.503 43.8561L175.7 50.1016H178.576L186.159 32.6365H183.089ZM158.246 44.4917H161.004V25.9673H158.246V44.4917Z" fill="white"/>
<path d="M15.5966 11.2196C15.1647 11.671 14.9165 12.3803 14.9165 13.3014V46.0393C14.9165 46.9604 15.1738 47.6605 15.5966 48.1211L15.7069 48.2316L34.0057 29.8914V29.6704V29.4585L15.7069 11.1183L15.5966 11.2196Z" fill="#5BC9F4"/>
<path d="M40.1083 36.0079L34.0056 29.8915V29.6704V29.4585L40.1083 23.342L40.2461 23.4249L47.4701 27.5425C49.538 28.7216 49.538 30.6376 47.4701 31.8167L40.2461 35.925L40.1083 36.0079Z" fill="url(#paint0_linear)"/>
<path d="M40.2463 35.9249L34.0058 29.6703L15.5967 48.121C16.2768 48.8395 17.3981 48.9316 18.6664 48.2131L40.2463 35.9249Z" fill="url(#paint1_linear)"/>
<path d="M40.2463 23.4157L18.6664 11.1367C17.3981 10.4182 16.2768 10.5011 15.5967 11.2288L34.0058 29.6703L40.2463 23.4157Z" fill="url(#paint2_linear)"/>
<path d="M67.9472 12.2706C67.3957 11.7731 66.6605 11.4599 65.8517 11.4599C64.0319 11.4599 62.6349 12.9614 62.6349 14.8129C62.6349 16.6553 64.0319 18.1567 65.8517 18.1567C67.4141 18.1567 68.5538 17.2448 68.6273 15.8078H66.155V14.7853H69.9691C69.9691 17.8435 68.3424 19.2898 65.8517 19.2898C63.3794 19.2898 61.4585 17.2908 61.4585 14.8222C61.4585 12.3442 63.3794 10.3453 65.8517 10.3453C67.0005 10.3453 68.0391 10.7875 68.7927 11.4968L67.9472 12.2706Z" fill="white"/>
<path d="M76.7151 10.4366V11.5328H72.7355V14.3147H76.2096V15.4201H72.7355V18.0546H76.8346V19.1508H71.5591V10.4366H76.7151Z" fill="white"/>
<path d="M84.3251 10.4366V11.5512H81.6874V19.1508H80.5018V11.5512H77.864V10.4366H84.3251Z" fill="white"/>
<path d="M89.9591 10.4366V19.1508H88.7827V10.4366H89.9591Z" fill="white"/>
<path d="M97.9643 10.4366V11.5512H95.3265V19.1508H94.1409V11.5512H91.5032V10.4366H97.9643Z" fill="white"/>
<path d="M106.245 10.3353C108.736 10.3353 110.666 12.3342 110.666 14.8121C110.666 17.2808 108.736 19.2797 106.245 19.2797C103.773 19.2797 101.852 17.2808 101.852 14.8121C101.852 12.3342 103.773 10.3353 106.245 10.3353ZM106.245 18.1375C108.074 18.1375 109.48 16.6545 109.48 14.8121C109.48 12.9606 108.083 11.4683 106.245 11.4683C104.425 11.4683 103.028 12.9606 103.028 14.8121C103.028 16.6637 104.425 18.1375 106.245 18.1375Z" fill="white"/>
<path d="M117.605 19.1508L113.644 12.5829V19.1508H112.467V10.4366H113.625L117.55 16.9492V10.4366H118.726V19.1508H117.605Z" fill="white"/>
<defs>
<linearGradient id="paint0_linear" x1="46.1284" y1="29.6728" x2="10.3896" y2="29.6728" gradientUnits="userSpaceOnUse">
<stop stop-color="#FEE000"/>
<stop offset="0.1941" stop-color="#FCCF0B"/>
<stop offset="0.5469" stop-color="#FAB318"/>
<stop offset="0.8279" stop-color="#F9A21B"/>
<stop offset="1" stop-color="#F99B1C"/>
</linearGradient>
<linearGradient id="paint1_linear" x1="36.8539" y1="33.0696" x2="3.164" y2="66.6834" gradientUnits="userSpaceOnUse">
<stop stop-color="#EF4547"/>
<stop offset="1" stop-color="#C6186D"/>
</linearGradient>
<linearGradient id="paint2_linear" x1="3.09018" y1="-7.56554" x2="30.5971" y2="19.8793" gradientUnits="userSpaceOnUse">
<stop stop-color="#279E6F"/>
<stop offset="0.3168" stop-color="#4DAB6D"/>
<stop offset="0.7398" stop-color="#6ABA6A"/>
<stop offset="1" stop-color="#74C169"/>
</linearGradient>
</defs>
</svg>
