<svg width="961" height="614" viewBox="0 0 961 614" fill="none" xmlns="http://www.w3.org/2000/svg">
<path fill-rule="evenodd" clip-rule="evenodd" d="M143.59 484.785H309.633V499.597H148.988L189.307 613.114H174.155L69.7896 325.534L83.7047 320.461L143.59 484.785Z" fill="black"/>
<path fill-rule="evenodd" clip-rule="evenodd" d="M22.3573 596.333C22.3573 596.333 24.4042 500.207 25.9713 426.614C26.9742 379.483 64.1009 341.073 111.171 338.471C215.18 332.665 317.861 331.189 418.424 336.593C467.27 339.228 507.605 375.7 515.12 424.036C515.149 424.031 515.148 424.031 515.148 424.031C519.264 450.47 512.08 477.417 495.348 498.297C474.118 524.693 438.272 561.468 382.77 596.548C382.77 596.548 403.295 602.48 405.392 611.65C405.392 611.65 249.226 611.468 209.427 611.426C207.961 611.421 206.646 610.519 206.117 609.151C205.587 607.787 205.951 606.231 207.033 605.246C234.99 579.69 340.277 483.457 340.277 483.457L162.683 485.26C162.683 485.26 159.83 584.544 159.16 607.866C159.082 610.566 156.859 612.715 154.156 612.696C127.465 612.509 0.00434493 611.636 0.00434493 611.636C0.00434493 611.636 -0.874284 602.317 22.3573 596.333Z" fill="url(#paint0_linear)"/>
<path fill-rule="evenodd" clip-rule="evenodd" d="M424.317 567.323L288.368 530.823L292.458 527.081L428.89 563.712C427.386 564.912 425.863 566.117 424.317 567.323ZM161.413 525.157L23.6787 528.483L23.7782 523.807L161.547 520.481L161.413 525.157Z" fill="#82B5B2"/>
<path fill-rule="evenodd" clip-rule="evenodd" d="M339.476 483.674L387.798 483.562C388.261 483.562 388.653 483.898 388.723 484.356C388.793 484.813 388.522 485.252 388.079 485.393L311.34 509.393L339.476 483.674ZM162.106 485.411L161.481 507.188L120.721 488.84C119.931 488.485 119.498 487.625 119.68 486.78C119.863 485.93 120.612 485.327 121.477 485.332L162.106 485.411Z" fill="#346864"/>
<path fill-rule="evenodd" clip-rule="evenodd" d="M399.214 135.918C399.214 135.918 352.284 72.5522 246.712 100.226C232.496 103.954 119.889 139.692 75.4675 240.104C71.1238 249.922 47.704 294.563 81.6562 318.428C105.345 335.085 130.746 331.997 219.752 302.21C227.284 299.688 273.678 289.888 265.291 279.173C265.291 279.173 269.034 279.931 270.832 277.44C270.832 277.44 271.037 278.723 271.189 279.672C271.293 280.32 271.6 280.919 272.065 281.383C274.192 283.504 280.583 289.874 284.603 293.881C285.294 294.568 286.304 294.83 287.242 294.559C288.18 294.292 288.898 293.536 289.119 292.583C290.306 287.473 292.035 280.028 292.035 280.028C292.035 280.028 334.258 289.192 359.706 248.046C359.706 248.046 360.767 288.687 392.226 305.092C401.414 309.885 452.432 320.063 465.819 267.447C475.18 230.645 482.019 164.885 488.002 117.637C488.002 117.637 519.266 98.0119 521.629 88.6118C522.479 85.2355 519.051 79.69 511.409 85.2981C511.409 85.2981 522.82 75.5949 519.013 71.0224C516.893 68.479 512.553 68.3459 503.959 75.7052C503.959 75.7052 514.665 64.7403 509.774 60.3523C504.514 55.6396 498.409 65.3326 492.813 70.5502C492.813 70.5502 505.266 51.4286 498.223 48.1267C495.238 46.7277 492.015 46.5516 481.145 60.2397C471.079 72.9156 456.804 74.2235 446.458 72.9801C446.458 72.9801 450.531 49.0973 445.864 46.7832C440.595 44.1684 435.845 48.8432 424.396 72.3284C413.092 95.5054 407.454 118.469 399.214 135.918Z" fill="url(#paint1_linear)"/>
<path fill-rule="evenodd" clip-rule="evenodd" d="M274.911 94.65C356.549 84.3899 395.361 131.059 398.874 135.526C393.549 154.522 384.417 195.101 384.417 195.101L374.808 194.967C374.962 218.679 359.674 247.018 359.674 247.018L359.613 248.015C335.417 287.113 295.529 280.629 291.763 280.069L292.993 273.886L289.796 264.915L288.801 262.374C288.801 262.374 293.213 256.461 297.122 251.222C300.419 246.801 299.649 240.566 295.374 237.081C286.825 230.112 274.164 219.791 274.164 219.791C274.09 219.734 274.017 219.678 273.944 219.622C263.773 211.841 250.921 208.432 238.232 210.151C211.338 213.793 157.267 221.118 157.267 221.118L124.623 170.645C162.708 133.902 207.381 113.881 231.171 105.194L274.911 94.65Z" fill="#1C8178"/>
<path fill-rule="evenodd" clip-rule="evenodd" d="M271.307 277.581C272.218 276.474 275.229 272.293 272.529 268.258L268.729 263.663C268.729 263.663 274.059 264.432 276.225 264.226C276.225 264.226 275.927 269.563 280.335 270.49C281.54 270.74 282.784 270.289 283.549 269.324C285.675 266.652 290.438 260.647 290.438 260.647C290.438 260.647 293.094 272.108 293.574 274.18C293.622 274.391 293.624 274.609 293.577 274.82C293.139 276.799 290.821 287.287 290.821 287.287L289.58 292.631C289.359 293.584 288.641 294.341 287.703 294.607C286.765 294.878 285.755 294.616 285.064 293.93C281.044 289.922 274.653 283.552 272.525 281.431C272.06 280.967 271.754 280.369 271.65 279.72L271.307 277.581ZM252.486 210.249C252.486 210.249 269.401 212.727 280.256 224.761L272.778 188.673L247.999 188.816L252.486 210.249Z" fill="#FFBF2F"/>
<path fill-rule="evenodd" clip-rule="evenodd" d="M291.062 286.654L290.933 287.238L289.692 292.581C289.471 293.534 288.753 294.291 287.815 294.557C286.877 294.828 285.867 294.567 285.176 293.88L279.488 288.209L291.062 286.654ZM274.27 264.176C275.068 264.219 275.8 264.228 276.337 264.176C276.337 264.176 276.04 269.513 280.447 270.44C280.926 270.539 281.41 270.528 281.869 270.418L282.554 273.607L292.87 270.606L293.686 274.131C293.711 274.239 293.724 274.35 293.724 274.461L272.188 280.814C271.973 280.467 271.828 280.078 271.762 279.67L271.42 277.532C271.583 277.333 271.814 277.036 272.067 276.658L276.677 275.317L274.27 264.176ZM263.276 213.279L257.969 188.709L264.289 188.673L270.313 216.686C267.897 215.282 265.495 214.163 263.276 213.279Z" fill="black"/>
<path fill-rule="evenodd" clip-rule="evenodd" d="M266.508 282.674L252.299 281.538C251.271 281.456 250.503 280.555 250.585 279.527C250.667 278.499 251.568 277.731 252.596 277.813L268.602 279.092C267.066 279.479 265.603 279.183 265.603 279.183C266.525 280.36 266.785 281.527 266.508 282.674ZM272.944 265.054C273.075 264.956 273.222 264.874 273.381 264.811C273.381 264.811 275.171 264.109 277.079 263.361C279.325 262.48 280.993 260.549 281.538 258.199C281.538 258.198 281.538 258.198 281.538 258.198C282.649 253.404 280.648 248.426 276.528 245.735C271.848 242.677 266.839 239.405 266.839 239.405C265.976 238.842 265.733 237.683 266.297 236.819C266.861 235.956 268.019 235.713 268.883 236.277L278.201 242.364L278.451 240.246C278.571 239.221 279.501 238.488 280.525 238.609C281.549 238.729 282.283 239.659 282.162 240.682L281.627 245.226C284.936 248.916 286.334 254.054 285.178 259.041C285.178 259.042 285.178 259.042 285.178 259.042C284.355 262.592 281.836 265.509 278.443 266.84C276.536 267.588 274.746 268.29 274.746 268.29C274.08 268.551 273.355 268.403 272.847 267.969C272.374 268.321 271.743 268.445 271.142 268.247L255.199 262.987C254.22 262.664 253.687 261.607 254.01 260.627C254.333 259.648 255.391 259.115 256.37 259.439L272.313 264.698C272.552 264.777 272.764 264.9 272.944 265.054ZM385.467 174.696C385.467 174.696 371.855 231.771 368.87 257.261C368.749 258.285 369.482 259.214 370.51 259.334C371.533 259.454 372.462 258.72 372.579 257.696C375.555 232.339 389.106 175.563 389.106 175.563C389.344 174.56 388.723 173.551 387.718 173.312C386.719 173.073 385.71 173.693 385.467 174.696ZM167.709 213.7C135.305 220.964 115.505 227.134 105.882 232.491C104.756 233.118 104.35 234.541 104.978 235.667C105.605 236.794 107.028 237.199 108.154 236.572C117.579 231.326 136.996 225.372 168.732 218.258C169.989 217.976 170.782 216.726 170.499 215.468C170.217 214.211 168.967 213.418 167.709 213.7ZM488.894 117.277C488.515 117.519 488.315 117.647 488.315 117.647C487.88 121.068 487.441 124.586 487.002 128.181L477.417 125.66C477.053 125.564 476.782 125.256 476.735 124.881C476.684 124.507 476.866 124.139 477.193 123.952L488.894 117.277ZM519.933 72.1262C521.507 76.9878 511.721 85.3079 511.721 85.3079C512.002 85.1019 512.277 84.9114 512.543 84.7353C505.719 90.9917 496.503 98.415 487.605 102.332C486.661 102.747 485.559 102.319 485.143 101.375C484.727 100.431 485.157 99.3272 486.1 98.912C501.081 92.3174 516.967 75.3796 519.933 72.1262ZM511.362 63.4739C511.278 68.5383 504.271 75.7149 504.271 75.7149C504.785 75.2712 505.289 74.8545 505.78 74.4645C498.904 81.0759 488.945 89.8137 480.196 94.2563C479.276 94.7234 478.15 94.3558 477.683 93.4366C477.216 92.5168 477.585 91.3916 478.505 90.9244C492.617 83.7581 509.942 65.0275 511.362 63.4739ZM499.95 56.5724C498.049 63.004 493.126 70.5599 493.126 70.5599C493.28 70.4179 493.434 70.2727 493.583 70.1251C487.885 76.0891 480.192 82.6183 471.536 85.9016C470.569 86.2669 469.49 85.7811 469.126 84.817C468.761 83.8529 469.247 82.7729 470.209 82.4072C485.152 76.7407 497.007 60.7955 499.95 56.5724Z" fill="#A6E5E4"/>
<path fill-rule="evenodd" clip-rule="evenodd" d="M214.352 213.449L228.798 198.113C229.448 197.423 230.456 197.204 231.333 197.564C232.211 197.923 232.776 198.786 232.755 199.734L232.508 210.991L214.352 213.449ZM374.566 197.369C374.524 195.333 374.234 183.28 372.992 175.009C372.898 174.618 373.113 174.219 373.491 174.079C373.865 173.939 374.29 174.102 374.472 174.46C377.172 179.602 381.273 187.94 383.623 195.186L374.598 195.059C374.603 195.825 374.589 196.596 374.566 197.369Z" fill="#346864"/>
<path d="M270.75 80.974C290.885 80.974 307.208 64.5965 307.208 44.3938C307.208 24.191 290.885 7.81348 270.75 7.81348C250.614 7.81348 234.292 24.191 234.292 44.3938C234.292 64.5965 250.614 80.974 270.75 80.974Z" fill="#A6E5E4"/>
<path fill-rule="evenodd" clip-rule="evenodd" d="M246.512 71.7101C239.015 65.0066 234.292 55.2492 234.292 44.3936C234.292 24.2043 250.628 7.81348 270.75 7.81348C283.074 7.81348 293.979 13.9625 300.58 23.3686L270.722 50.0643C270.364 49.0124 269.818 47.9866 269.08 47.043C265.96 43.0554 260.593 42.0352 257.101 44.7664C253.61 47.4975 253.307 52.9524 256.427 56.9401C257.396 58.1794 258.582 59.1318 259.862 59.7745L246.512 71.7101Z" fill="black"/>
<path d="M677.053 107.755H649.194L660.94 148.22H688.8L677.053 107.755Z" fill="white"/>
<path fill-rule="evenodd" clip-rule="evenodd" d="M661.705 147.353H670.5C671.006 147.353 671.423 147.767 671.422 148.276C671.422 148.786 671.007 149.199 670.497 149.199H661.012C660.603 149.199 660.242 148.928 660.128 148.534L648.381 108.069C648.3 107.79 648.354 107.489 648.529 107.257C648.704 107.025 648.975 106.889 649.268 106.889H668.81C669.32 106.889 669.733 107.302 669.732 107.812C669.732 108.321 669.32 108.735 668.81 108.735H650.495L661.705 147.353Z" fill="black"/>
<path fill-rule="evenodd" clip-rule="evenodd" d="M676.919 108.735H669.296C668.787 108.735 668.374 108.321 668.374 107.812C668.374 107.302 668.786 106.889 669.296 106.889H677.613C678.022 106.889 678.382 107.16 678.497 107.554L690.243 148.019C690.324 148.298 690.271 148.599 690.096 148.831C689.921 149.063 689.65 149.199 689.36 149.199H670.983C670.473 149.199 670.06 148.786 670.06 148.276C670.061 147.767 670.476 147.353 670.986 147.353H688.13L676.919 108.735Z" fill="black"/>
<path d="M676.089 111.406H653.023L654.57 115.882H677.635L676.089 111.406Z" fill="black"/>
<path d="M678.581 118.728H655.516L657.062 123.203H680.127L678.581 118.728Z" fill="black"/>
<path d="M681.073 126.205H658.007L659.554 130.681H682.619L681.073 126.205Z" fill="black"/>
<path d="M682.32 133.527H659.255L660.802 138.002H683.867L682.32 133.527Z" fill="black"/>
<path d="M684.813 140.848H661.748L663.294 145.324H686.359L684.813 140.848Z" fill="black"/>
<path fill-rule="evenodd" clip-rule="evenodd" d="M683.123 131.063C682.212 128.495 676.775 112.424 680.974 105.6C681.259 105.155 681.712 104.847 682.226 104.748C683.721 104.507 686.906 105.137 691.414 112.404C691.414 112.404 732.342 173.873 747.117 183.057C747.117 183.057 747.509 136.12 802.772 128.446C810.442 127.38 864.356 116.901 894.573 191.706C904.569 216.455 904.457 236.243 904.28 257.395C904.163 274.161 895.461 289.698 881.219 298.55C862.558 310.153 839.417 311.965 819.177 303.403C805.598 297.681 788.073 291.866 768.178 288.937L724.504 284.714C724.504 284.714 726.685 296.649 708.604 294.351C708.604 294.351 694.366 292.473 697.211 282.924C697.211 282.924 687.616 281.372 689.597 272.098C689.597 272.098 680.502 265.002 688.579 256.339C688.579 256.339 662.323 256.023 656.983 243.519C656.535 242.437 656.507 241.224 656.913 240.124C657.404 238.764 658.674 237.316 661.771 237.21C661.771 237.21 698.094 236.652 707.651 233.915L686.888 198.592C686.888 198.592 670.716 189.704 666.989 175.495C663.149 175.513 659.889 172.551 659.595 168.661C659.342 165.334 661.342 162.352 664.303 161.21L662.603 161.339C658.586 161.641 655.082 158.628 654.779 154.613C654.536 151.372 656.451 148.464 659.31 147.303C655.433 147.482 652.093 144.542 651.799 140.649C651.5 136.685 654.475 133.223 658.436 132.924L683.123 131.063Z" fill="url(#paint2_linear)"/>
<path fill-rule="evenodd" clip-rule="evenodd" d="M724.113 289.348C715.565 288.858 708.703 290.909 708.703 290.909C707.465 291.282 706.162 290.577 705.793 289.344C705.424 288.111 706.124 286.807 707.362 286.434C707.362 286.434 717.344 283.44 728.672 285.13L724.71 284.747C724.71 284.747 725.122 286.994 724.113 289.348ZM693.022 281.129C694.657 276.172 700.22 265.237 717.895 262.54C719.166 262.345 720.362 263.222 720.553 264.496C720.749 265.771 719.871 266.963 718.596 267.158C703.009 269.536 698.506 279.331 697.357 282.947C696.992 282.879 694.932 282.452 693.022 281.129ZM686.431 267.854C688.715 262.982 694.942 255.065 711.673 251.948C712.939 251.713 714.163 252.55 714.397 253.817C714.635 255.084 713.794 256.305 712.528 256.541C691.653 260.429 689.738 272.426 689.804 272.131C689.804 272.131 687.716 270.502 686.431 267.854ZM682.988 255.968C685.721 252.426 694.372 242.569 707.138 240.74C708.413 240.557 709.6 241.444 709.782 242.72C709.964 243.996 709.076 245.181 707.801 245.364C698.814 246.651 692.228 252.541 688.753 256.391C688.318 256.383 686.067 256.304 682.988 255.968ZM818.837 232.328L847.354 242.352C848.569 242.78 849.905 242.14 850.335 240.923C850.76 239.707 850.12 238.373 848.905 237.945L820.388 227.92C819.169 227.493 817.838 228.133 817.408 229.349C816.983 230.566 817.623 231.9 818.837 232.328ZM705.424 229.803C708.418 229.211 741.372 222.812 765.41 223.07C766.699 223.084 767.736 224.142 767.722 225.431C767.708 226.72 766.647 227.755 765.358 227.742C740.564 227.475 707.217 234.132 707.857 233.948L705.424 229.803ZM687.094 198.625L694.32 201.876C695.259 202.311 695.661 203.423 695.231 204.358C694.792 205.293 693.681 205.7 692.746 205.265L690.341 204.145L687.094 198.625ZM682.106 127.296C686.333 127.984 689.341 130.242 690.434 132.027C692.877 136.012 691.91 139.923 689.575 142.709C689.724 143.451 689.981 144.584 690.369 145.963C690.934 146.361 691.41 146.775 691.807 147.188C693.97 149.435 694.11 151.819 694.152 152.554C694.199 153.441 694.12 154.265 693.933 155.031C695.969 158.864 698.837 162.644 702.887 164.819C703.793 165.307 704.134 166.441 703.649 167.349C703.163 168.258 702.028 168.599 701.117 168.111C699.403 167.189 697.861 166.027 696.474 164.705C696.479 164.723 696.483 164.74 696.488 164.758C698.006 169.502 695.572 174.624 690.92 176.437C683.839 179.216 673.917 179.4 668.494 179.252C667.971 178.056 667.532 176.814 667.195 175.528C666.719 175.53 681.386 176.164 689.556 172.957C692.405 171.847 693.877 168.693 692.9 165.796C692.886 165.764 692.877 165.732 692.868 165.699C692.167 163.772 690.252 162.555 688.206 162.748L684.357 163.112C683.619 163.331 683.152 163.427 683.152 163.427C682.778 163.503 682.405 163.462 682.078 163.327L660.31 165.384C661.072 163.502 662.585 161.985 664.51 161.243L683.67 159.424C684.805 159.064 686.52 158.396 687.982 157.299C689.355 156.267 690.537 154.824 690.42 152.76C690.397 152.352 690.317 151.029 689.117 149.781C687.631 148.243 684.717 146.947 679.144 146.818C678.995 146.815 678.85 146.794 678.714 146.757C672.189 146.973 665.5 147.073 658.848 147.336C656.405 147.223 654.243 145.878 653.023 143.872C662.688 143.323 672.553 143.285 681.979 142.897C683.311 142.843 684.763 142.156 685.927 141.116C686.085 140.834 686.319 140.595 686.604 140.428C688.052 138.756 688.668 136.43 687.248 133.978C685.931 131.707 683.329 131.096 683.329 131.096C683.115 130.487 682.643 129.119 682.106 127.296ZM693.919 163.486C693.288 163.752 693.19 164.03 693.143 164.12C693.241 163.978 693.363 163.85 693.498 163.739C693.624 163.639 693.765 163.553 693.919 163.486L693.951 163.473L693.919 163.486ZM691.821 158.858C691.644 159.052 691.452 159.241 691.261 159.422C691.705 159.572 692.134 159.759 692.545 159.98C692.293 159.609 692.055 159.234 691.821 158.858Z" fill="#FD9500"/>
<path fill-rule="evenodd" clip-rule="evenodd" d="M746.492 182.896L746.646 182.992C746.646 182.992 747.038 136.055 802.302 128.381C809.972 127.316 863.885 116.837 894.102 191.642C894.21 191.902 894.313 192.161 894.415 192.419C876.507 211.27 856.818 197.062 856.818 197.062C847.191 226.492 816.408 213.847 816.408 213.847L826.367 235.11C803.11 226.568 757.87 227.808 757.87 227.808C748.491 215.988 746.711 194.702 746.492 182.896Z" fill="#F26322"/>
<path fill-rule="evenodd" clip-rule="evenodd" d="M815.452 232.052C815.452 232.052 809.445 212.664 805.12 198.719C804.929 198.094 805.246 197.425 805.849 197.178C806.456 196.931 807.152 197.189 807.451 197.771C815.107 212.741 826.649 235.299 826.649 235.299L815.452 232.052Z" fill="#E86135"/>
<path fill-rule="evenodd" clip-rule="evenodd" d="M645.645 357.553C689.007 304.957 778.799 324.468 798.567 327.074C926.503 343.942 898.127 442.216 893.502 454.768C883.347 482.313 858.899 492.968 822.413 496.672V603.579C822.413 603.579 811.277 593.634 808.718 582.339C808.718 582.339 804.327 582.069 796.731 581.307C796.731 581.307 802.51 596.988 805.551 605.246C805.971 606.377 805.807 607.638 805.116 608.624C804.429 609.614 803.304 610.202 802.099 610.202H656.819C664.731 595.759 680.31 595.881 680.31 595.881C674.223 580.635 667.945 565.808 661.765 550.674C621.977 534.779 586.893 511.18 576.191 476.339C572.039 462.821 569.586 403.344 645.645 357.553Z" fill="url(#paint3_linear)"/>
<path fill-rule="evenodd" clip-rule="evenodd" d="M665.492 561.235C679.958 568.536 705 575.309 721.596 547.455C721.946 546.862 722.54 546.46 723.217 546.343C723.894 546.231 724.585 546.423 725.113 546.866C725.113 546.866 735.492 555.643 748.258 559.978C755.62 562.477 763.804 563.533 771.156 560.216C776.023 558.016 780.489 553.892 784.137 547.105C784.744 545.97 786.16 545.54 787.299 546.152C788.434 546.764 788.859 548.179 788.248 549.314C784.011 557.203 778.737 561.917 773.076 564.472C764.626 568.288 755.214 567.274 746.754 564.402C736.707 560.987 728.047 554.994 724.207 552.093C707.517 577.761 683.882 574.131 668.065 567.461L666.963 564.803C666.575 563.864 666.188 562.926 665.8 561.987L665.492 561.235Z" fill="#FD9500"/>
<path fill-rule="evenodd" clip-rule="evenodd" d="M771.123 497.678C771.123 497.678 731.465 497.515 709.642 497.426C708.75 497.421 707.988 498.084 707.872 498.972C707.76 499.859 708.32 500.696 709.184 500.92C732.054 506.917 775.859 518.408 775.859 518.408L771.123 497.678Z" fill="#FD9500"/>
<path fill-rule="evenodd" clip-rule="evenodd" d="M825.271 496.355C824.323 496.463 823.374 496.565 822.412 496.664V501.223C804.998 502.316 788.865 502.587 773.132 502.372L801.719 581.771C800.262 581.64 798.59 581.486 796.731 581.299L800.897 592.612C800.659 592.374 800.463 592.08 800.341 591.739L768.139 502.292C765.196 502.232 762.267 502.157 759.339 502.068C758.054 502.031 757.04 500.952 757.078 499.667C757.115 498.378 758.194 497.364 759.479 497.402C780.433 498.032 801.635 497.957 825.271 496.355ZM657.378 345.853C630.758 369.592 620.257 395.497 627.6 440.629C632.598 471.365 645.78 510.864 667.669 564.343C667.814 564.693 667.865 565.062 667.837 565.417C665.81 560.517 663.782 555.608 661.764 550.666C659.901 549.923 658.051 549.162 656.211 548.382C638.39 503.315 627.46 468.866 622.99 441.381C617.52 407.778 621.598 384.399 634.448 364.762C637.975 362.323 641.702 359.918 645.645 357.545C649.255 353.163 653.188 349.282 657.378 345.853Z" fill="#FD9500"/>
<path d="M760.819 125.77C779.744 125.77 795.086 110.314 795.086 91.2489C795.086 72.1835 779.744 56.7279 760.819 56.7279C741.893 56.7279 726.551 72.1835 726.551 91.2489C726.551 110.314 741.893 125.77 760.819 125.77Z" fill="#FFBF2F"/>
<path fill-rule="evenodd" clip-rule="evenodd" d="M734.355 69.5182C740.642 61.7277 750.227 56.746 760.961 56.746C779.874 56.746 795.228 72.2138 795.228 91.2667C795.228 95.161 794.588 98.9053 793.406 102.396C787.362 101.867 783.929 97.3662 782.747 95.4842C784.957 94.3463 786.493 91.838 786.493 88.9297C786.493 84.9528 783.621 81.7237 780.08 81.7237C776.539 81.7237 773.666 84.9528 773.666 88.9297C773.666 89.8696 773.825 90.7683 774.12 91.5923C752.408 93.9311 738.601 76.0068 734.355 69.5182ZM749.919 51.2514C750.806 51.5504 751.782 51.2085 752.292 50.4214C752.796 49.6348 752.707 48.6039 752.067 47.9186C751.885 47.6939 751.68 47.4753 751.465 47.2502C746.065 41.6192 739.983 36.5091 733.505 32.1864C713.578 18.8874 689.835 8.93988 666.493 3.66157C642.381 -1.79052 612.285 -2.0974 590.981 12.0125C576.963 21.2944 566.481 40.9344 578.565 56.2715C582.9 61.7726 589.126 65.5959 595.563 68.1706C621.618 78.5927 648.785 72.0176 673.537 61.5815C687.63 55.6395 701.643 47.7626 716.992 45.3182C726.629 43.7838 741.497 48.269 749.919 51.2514Z" fill="black"/>
<path fill-rule="evenodd" clip-rule="evenodd" d="M881.881 497.746L947.085 321.708L961 326.78L857.461 610.885H839.977L876.397 512.554H772.662V497.746H881.881Z" fill="black"/>
<path d="M630.948 138.356H434.935L458.126 276.019H654.139L630.948 138.356Z" fill="black"/>
<path d="M580.888 269.21H537.125L543.491 307H587.255L580.888 269.21Z" fill="black"/>
<path d="M620.098 148.793H448.643L467.815 262.598H639.27L620.098 148.793Z" fill="#EAEAEB"/>
<path d="M614.077 158.919H555.819L564.335 209.47H622.593L614.077 158.919Z" fill="white"/>
<path fill-rule="evenodd" clip-rule="evenodd" d="M557.887 160.319L560.833 177.806C560.962 178.568 560.447 179.292 559.684 179.42C558.921 179.549 558.198 179.034 558.069 178.271L554.848 159.151C554.78 158.744 554.893 158.328 555.16 158.013C555.426 157.698 555.817 157.517 556.229 157.517H614.488C615.172 157.517 615.756 158.011 615.869 158.685L619.091 177.806C619.219 178.568 618.704 179.292 617.941 179.42C617.179 179.549 616.456 179.034 616.328 178.271L613.304 160.319H557.887Z" fill="black"/>
<path fill-rule="evenodd" clip-rule="evenodd" d="M621.864 208.109L616.845 178.312C616.716 177.549 617.23 176.826 617.993 176.697C618.755 176.569 619.479 177.084 619.607 177.847L624.902 209.277C624.971 209.684 624.857 210.1 624.591 210.415C624.324 210.73 623.933 210.911 623.521 210.911H565.262C564.579 210.911 563.995 210.418 563.881 209.743L558.586 178.312C558.457 177.549 558.972 176.826 559.735 176.697C560.498 176.569 561.221 177.084 561.35 177.847L566.448 208.109H621.864Z" fill="black"/>
<path fill-rule="evenodd" clip-rule="evenodd" d="M585.924 209.47H583.084L574.513 158.919H577.357L585.924 209.47ZM606.65 209.47H603.805L595.238 158.919H598.078L606.65 209.47Z" fill="black"/>
<path fill-rule="evenodd" clip-rule="evenodd" d="M621.399 197.862H563.141L562.669 195.06H620.927L621.399 197.862ZM619.301 185.402H561.044L560.572 182.6H618.829L619.301 185.402ZM617.045 172.003H558.787L558.311 169.2H616.573L617.045 172.003Z" fill="black"/>
<path fill-rule="evenodd" clip-rule="evenodd" d="M541.321 252.587H587.815L574.896 175.899H541.321" fill="white"/>
<path fill-rule="evenodd" clip-rule="evenodd" d="M574.124 177.299H541.731C540.959 177.299 540.331 176.672 540.331 175.898C540.33 175.125 540.959 174.497 541.732 174.497H575.309C575.993 174.497 576.577 174.991 576.69 175.665L589.61 252.353C589.678 252.759 589.564 253.176 589.298 253.49C589.031 253.805 588.639 253.987 588.228 253.987H541.731C540.958 253.987 540.331 253.359 540.331 252.586C540.33 251.812 540.959 251.184 541.732 251.184H586.571L574.124 177.299Z" fill="black"/>
<path fill-rule="evenodd" clip-rule="evenodd" d="M540.938 175.899H473.569L486.488 252.587H540.938" fill="white"/>
<path fill-rule="evenodd" clip-rule="evenodd" d="M488.083 251.184H541.348C542.121 251.184 542.75 251.812 542.751 252.586C542.749 253.359 542.123 253.987 541.348 253.987H486.898C486.214 253.987 485.63 253.493 485.516 252.818L472.597 176.131C472.529 175.724 472.643 175.308 472.908 174.993C473.176 174.678 473.567 174.497 473.979 174.497H541.348C542.121 174.497 542.75 175.125 542.751 175.898C542.749 176.672 542.123 177.299 541.348 177.299H475.636L488.083 251.184Z" fill="black"/>
<path d="M574.514 175.899H473.569L475.12 185.108H576.066L574.514 175.899Z" fill="black"/>
<path fill-rule="evenodd" clip-rule="evenodd" d="M584.133 230.972H483.186L482.715 228.17H583.661L584.133 230.972ZM579.971 206.274H479.029L478.553 203.472H579.499L579.971 206.274Z" fill="black"/>
<path fill-rule="evenodd" clip-rule="evenodd" d="M513.086 252.586H510.246L497.247 175.899H500.087L513.086 252.586ZM540.594 252.586H537.75L524.75 175.899H527.595L540.594 252.586ZM567.757 252.586H564.917L551.917 175.899H554.757L567.757 252.586Z" fill="black"/>
<path d="M576.904 220.351C576.964 221.116 576.817 221.826 576.464 222.48C576.091 223.118 575.543 223.644 574.785 224.061C574.026 224.46 573.107 224.711 572.029 224.796C570.731 224.897 569.653 224.749 568.774 224.334C568.163 224.042 567.633 223.618 567.223 223.078C566.795 222.539 566.569 222.001 566.527 221.468C566.502 221.147 566.591 220.872 566.812 220.64C567.013 220.392 567.279 220.263 567.626 220.236C567.9 220.215 568.145 220.285 568.358 220.429C568.573 220.592 568.759 220.846 568.913 221.174C569.11 221.57 569.319 221.894 569.541 222.145C569.744 222.397 570.037 222.607 570.398 222.758C570.778 222.907 571.241 222.96 571.808 222.916C572.594 222.854 573.22 222.626 573.686 222.232C574.151 221.838 574.354 221.374 574.312 220.841C574.279 220.414 574.125 220.086 573.83 219.84C573.553 219.593 573.19 219.425 572.759 219.316C572.327 219.206 571.749 219.108 571.042 219.002C570.093 218.862 569.288 218.674 568.626 218.44C567.964 218.205 567.439 217.852 567.017 217.384C566.612 216.915 566.382 216.324 566.323 215.577C566.269 214.884 566.421 214.245 566.762 213.664C567.123 213.099 567.656 212.627 568.365 212.285C569.09 211.924 569.957 211.713 570.962 211.635C571.766 211.572 572.468 211.606 573.068 211.756C573.669 211.906 574.183 212.134 574.592 212.425C575.001 212.715 575.301 213.031 575.512 213.373C575.723 213.714 575.841 214.045 575.867 214.383C575.891 214.685 575.803 214.979 575.602 215.227C575.384 215.495 575.119 215.641 574.79 215.666C574.48 215.691 574.255 215.637 574.079 215.507C573.902 215.36 573.719 215.142 573.51 214.818C573.235 214.356 572.913 214.006 572.563 213.765C572.213 213.523 571.672 213.423 570.923 213.481C570.246 213.534 569.709 213.719 569.312 214.055C568.914 214.372 568.723 214.745 568.755 215.154C568.774 215.403 568.865 215.629 569.026 215.795C569.187 215.98 569.381 216.108 569.648 216.23C569.914 216.334 570.178 216.421 570.441 216.49C570.702 216.541 571.131 216.615 571.727 216.712C572.472 216.832 573.163 216.957 573.781 217.106C574.383 217.273 574.914 217.482 575.357 217.734C575.799 217.986 576.158 218.334 576.43 218.76C576.703 219.186 576.854 219.711 576.904 220.351Z" fill="black"/>
<path fill-rule="evenodd" clip-rule="evenodd" d="M569.564 211.106L571.559 225.637C571.666 226.404 572.371 226.94 573.136 226.835C573.905 226.731 574.439 226.023 574.337 225.257L572.342 210.725C572.24 209.959 571.53 209.423 570.766 209.527C569.997 209.633 569.462 210.34 569.564 211.106Z" fill="black"/>
<path fill-rule="evenodd" clip-rule="evenodd" d="M487.297 189.533L488.899 198.847C489.03 199.61 489.758 200.122 490.52 199.991C491.281 199.86 491.795 199.134 491.66 198.372L490.057 189.058C489.927 188.295 489.203 187.783 488.441 187.914C487.68 188.046 487.166 188.771 487.297 189.533Z" fill="black"/>
<path fill-rule="evenodd" clip-rule="evenodd" d="M496.02 237.201L497.623 246.516C497.753 247.278 498.482 247.79 499.243 247.659C500.005 247.528 500.519 246.802 500.383 246.04L498.781 236.726C498.65 235.964 497.926 235.451 497.165 235.583C496.403 235.714 495.89 236.439 496.02 237.201Z" fill="black"/>
<path fill-rule="evenodd" clip-rule="evenodd" d="M520.214 213.522C520.642 213.46 521.001 213.812 521.346 214.247C521.92 214.959 522.342 216.002 522.514 217.19C522.686 218.378 522.578 219.497 522.231 220.344C522.023 220.858 521.779 221.298 521.351 221.36C520.585 221.471 520.056 222.183 520.167 222.948C520.278 223.713 520.988 224.245 521.754 224.134C522.833 223.977 523.791 223.293 524.455 222.165C525.215 220.866 525.596 218.905 525.288 216.787C524.981 214.669 524.058 212.898 522.96 211.868C522.003 210.975 520.891 210.592 519.811 210.749C519.045 210.86 518.516 211.571 518.628 212.337C518.739 213.102 519.448 213.633 520.214 213.522Z" fill="black"/>
<path fill-rule="evenodd" clip-rule="evenodd" d="M520.735 221.321C520.311 221.383 519.948 221.031 519.602 220.597C519.033 219.884 518.611 218.841 518.439 217.653C518.266 216.465 518.374 215.345 518.718 214.5C518.926 213.985 519.174 213.545 519.597 213.483C520.363 213.372 520.897 212.661 520.785 211.895C520.674 211.13 519.961 210.599 519.195 210.71C518.115 210.867 517.162 211.55 516.498 212.678C515.734 213.978 515.357 215.938 515.665 218.056C515.972 220.174 516.89 221.946 517.992 222.975C518.95 223.868 520.058 224.252 521.137 224.095C521.903 223.984 522.436 223.272 522.325 222.507C522.214 221.741 521.501 221.21 520.735 221.321Z" fill="black"/>
<path fill-rule="evenodd" clip-rule="evenodd" d="M523.957 238.135C524.385 238.073 524.744 238.425 525.09 238.859C525.663 239.572 526.085 240.615 526.258 241.803C526.43 242.991 526.322 244.11 525.975 244.957C525.767 245.471 525.523 245.911 525.095 245.973C524.329 246.084 523.8 246.795 523.911 247.561C524.022 248.326 524.731 248.858 525.497 248.747C526.577 248.59 527.534 247.906 528.198 246.778C528.958 245.479 529.339 243.518 529.032 241.4C528.725 239.282 527.802 237.511 526.704 236.481C525.747 235.588 524.635 235.205 523.555 235.362C522.789 235.473 522.26 236.184 522.371 236.949C522.482 237.715 523.192 238.246 523.957 238.135Z" fill="black"/>
<path fill-rule="evenodd" clip-rule="evenodd" d="M524.474 245.934C524.05 245.996 523.687 245.644 523.341 245.21C522.772 244.497 522.35 243.454 522.178 242.266C522.005 241.078 522.113 239.958 522.456 239.113C522.664 238.598 522.913 238.158 523.336 238.096C524.102 237.985 524.635 237.273 524.524 236.508C524.413 235.742 523.7 235.212 522.934 235.323C521.854 235.479 520.901 236.163 520.237 237.291C519.473 238.59 519.096 240.55 519.403 242.668C519.711 244.786 520.629 246.559 521.731 247.588C522.688 248.481 523.797 248.865 524.876 248.708C525.642 248.597 526.175 247.885 526.064 247.119C525.953 246.354 525.24 245.823 524.474 245.934Z" fill="black"/>
<path fill-rule="evenodd" clip-rule="evenodd" d="M551.374 238.135C551.802 238.073 552.161 238.425 552.507 238.859C553.08 239.572 553.502 240.614 553.675 241.802C553.847 242.991 553.739 244.11 553.392 244.956C553.184 245.471 552.94 245.911 552.512 245.973C551.746 246.084 551.217 246.795 551.328 247.56C551.439 248.326 552.149 248.858 552.914 248.746C553.994 248.59 554.951 247.906 555.615 246.778C556.375 245.479 556.756 243.518 556.449 241.4C556.142 239.282 555.219 237.51 554.121 236.481C553.164 235.588 552.052 235.205 550.972 235.361C550.206 235.473 549.677 236.184 549.788 236.949C549.899 237.715 550.609 238.246 551.374 238.135Z" fill="black"/>
<path fill-rule="evenodd" clip-rule="evenodd" d="M551.891 245.934C551.467 245.995 551.104 245.644 550.758 245.21C550.189 244.496 549.767 243.454 549.595 242.266C549.422 241.078 549.53 239.958 549.873 239.112C550.081 238.598 550.33 238.157 550.753 238.096C551.519 237.985 552.052 237.273 551.941 236.508C551.83 235.742 551.117 235.211 550.351 235.323C549.271 235.479 548.318 236.162 547.654 237.291C546.89 238.59 546.513 240.55 546.82 242.668C547.128 244.786 548.046 246.559 549.148 247.587C550.105 248.48 551.214 248.864 552.293 248.708C553.059 248.597 553.592 247.884 553.481 247.119C553.37 246.354 552.657 245.823 551.891 245.934Z" fill="black"/>
<path d="M520.565 54.0101L466.116 31.4917L434.85 99.9995L489.299 122.518L520.565 54.0101Z" fill="#DD6140"/>
<path d="M512.39 59.1248L467.421 40.527L463.357 49.4323L508.326 68.0302L512.39 59.1248Z" fill="white"/>
<path fill-rule="evenodd" clip-rule="evenodd" d="M466.779 57.3905C468.674 58.2108 469.585 60.3512 468.794 62.1774C468.004 64.0036 465.82 64.8043 463.925 63.984L463.368 65.2699C465.984 66.4022 468.987 65.2562 470.079 62.7335C471.171 60.2109 469.951 57.2369 467.335 56.1046L466.779 57.3905Z" fill="white"/>
<path fill-rule="evenodd" clip-rule="evenodd" d="M463.756 64.007C461.861 63.1867 460.95 61.0463 461.741 59.2201C462.531 57.3939 464.715 56.5932 466.61 57.4135L467.167 56.1277C464.547 54.9935 461.544 56.1395 460.452 58.6622C459.36 61.1848 460.579 64.1587 463.2 65.2929L463.756 64.007Z" fill="white"/>
<path fill-rule="evenodd" clip-rule="evenodd" d="M461.794 68.4509C463.69 69.2712 464.6 71.4117 463.81 73.2378C463.019 75.064 460.835 75.8648 458.94 75.0444L458.384 76.3303C460.999 77.4626 464.003 76.3166 465.095 73.7939C466.187 71.2713 464.967 68.2974 462.351 67.165L461.794 68.4509Z" fill="white"/>
<path fill-rule="evenodd" clip-rule="evenodd" d="M458.772 75.0672C456.877 74.2469 455.966 72.1064 456.756 70.2803C457.547 68.4541 459.731 67.6534 461.626 68.4737L462.183 67.1879C459.562 66.0537 456.559 67.1997 455.467 69.7224C454.375 72.245 455.595 75.2189 458.215 76.3531L458.772 75.0672Z" fill="white"/>
<path fill-rule="evenodd" clip-rule="evenodd" d="M456.809 79.5109C458.704 80.3313 459.615 82.4717 458.825 84.2979C458.034 86.1241 455.85 86.9248 453.955 86.1045L453.398 87.3903C456.014 88.5227 459.017 87.3766 460.109 84.854C461.201 82.3313 459.982 79.3574 457.366 78.2251L456.809 79.5109Z" fill="white"/>
<path fill-rule="evenodd" clip-rule="evenodd" d="M453.786 86.1275C451.891 85.3071 450.98 83.1667 451.77 81.3405C452.561 79.5143 454.745 78.7136 456.64 79.5339L457.197 78.2481C454.577 77.1139 451.574 78.2599 450.482 80.7826C449.39 83.3052 450.609 86.2792 453.229 87.4133L453.786 86.1275Z" fill="white"/>
<path fill-rule="evenodd" clip-rule="evenodd" d="M451.825 90.5713C453.72 91.3916 454.631 93.532 453.84 95.3582C453.05 97.1844 450.866 97.9852 448.971 97.1648L448.414 98.4507C451.03 99.583 454.033 98.437 455.125 95.9143C456.217 93.3916 454.997 90.4177 452.381 89.2854L451.825 90.5713Z" fill="white"/>
<path fill-rule="evenodd" clip-rule="evenodd" d="M448.802 97.1877C446.907 96.3674 445.996 94.2269 446.787 92.4008C447.577 90.5746 449.761 89.7739 451.656 90.5942L452.213 89.3084C449.593 88.1742 446.59 89.3202 445.498 91.8429C444.406 94.3655 445.625 97.3394 448.245 98.4736L448.802 97.1877Z" fill="white"/>
<path fill-rule="evenodd" clip-rule="evenodd" d="M476.751 62.2196C478.646 63.0399 479.556 65.1803 478.766 67.0065C477.975 68.8327 475.791 69.6334 473.896 68.8131L473.34 70.0989C475.956 71.2313 478.959 70.0852 480.051 67.5626C481.143 65.0399 479.923 62.066 477.307 60.9337L476.751 62.2196Z" fill="white"/>
<path fill-rule="evenodd" clip-rule="evenodd" d="M473.728 68.836C471.833 68.0157 470.922 65.8753 471.712 64.0491C472.503 62.2229 474.687 61.4222 476.582 62.2425L477.139 60.9567C474.519 59.8225 471.516 60.9685 470.424 63.4912C469.332 66.0138 470.551 68.9877 473.171 70.1219L473.728 68.836Z" fill="white"/>
<path fill-rule="evenodd" clip-rule="evenodd" d="M473.01 73.28C474.905 74.1003 475.816 76.2408 475.025 78.0669C474.235 79.8931 472.051 80.6938 470.156 79.8735L469.599 81.1593C472.215 82.2917 475.218 81.1456 476.31 78.623C477.402 76.1004 476.182 73.1265 473.566 71.9941L473.01 73.28Z" fill="white"/>
<path fill-rule="evenodd" clip-rule="evenodd" d="M469.987 79.8963C468.092 79.076 467.181 76.9356 467.972 75.1094C468.762 73.2832 470.946 72.4825 472.841 73.3028L473.398 72.017C470.778 70.8828 467.775 72.0288 466.683 74.5515C465.591 77.0741 466.81 80.048 469.431 81.1822L469.987 79.8963Z" fill="white"/>
<path fill-rule="evenodd" clip-rule="evenodd" d="M468.025 84.3402C469.921 85.1605 470.831 87.301 470.041 89.1271C469.25 90.9533 467.066 91.754 465.171 90.9337L464.615 92.2195C467.23 93.3519 470.234 92.2059 471.326 89.6832C472.418 87.1606 471.198 84.1867 468.582 83.0543L468.025 84.3402Z" fill="white"/>
<path fill-rule="evenodd" clip-rule="evenodd" d="M465.003 90.9566C463.108 90.1363 462.197 87.9959 462.987 86.1697C463.778 84.3435 465.962 83.5428 467.857 84.3631L468.414 83.0773C465.793 81.9431 462.79 83.0891 461.698 85.6118C460.606 88.1344 461.826 91.1083 464.446 92.2425L465.003 90.9566Z" fill="white"/>
<path fill-rule="evenodd" clip-rule="evenodd" d="M463.041 95.4005C464.936 96.2208 465.847 98.3613 465.057 100.187C464.266 102.014 462.082 102.814 460.187 101.994L459.63 103.28C462.246 104.412 465.249 103.266 466.341 100.744C467.433 98.2209 466.213 95.247 463.598 94.1146L463.041 95.4005Z" fill="white"/>
<path fill-rule="evenodd" clip-rule="evenodd" d="M460.018 102.017C458.123 101.196 457.212 99.056 458.003 97.2299C458.793 95.4037 460.977 94.603 462.873 95.4233L463.429 94.1375C460.809 93.0033 457.806 94.1493 456.714 96.672C455.622 99.1946 456.842 102.169 459.462 103.303L460.018 102.017Z" fill="white"/>
<path fill-rule="evenodd" clip-rule="evenodd" d="M487.966 67.0488C489.861 67.8691 490.772 70.0096 489.982 71.8357C489.191 73.6619 487.007 74.4626 485.112 73.6423L484.556 74.9282C487.171 76.0605 490.174 74.9144 491.266 72.3918C492.358 69.8692 491.139 66.8953 488.523 65.7629L487.966 67.0488Z" fill="white"/>
<path fill-rule="evenodd" clip-rule="evenodd" d="M484.943 73.6651C483.048 72.8448 482.137 70.7044 482.928 68.8782C483.718 67.052 485.902 66.2513 487.797 67.0716L488.354 65.7858C485.734 64.6516 482.731 65.7976 481.639 68.3203C480.547 70.8429 481.766 73.8168 484.387 74.951L484.943 73.6651Z" fill="white"/>
<path fill-rule="evenodd" clip-rule="evenodd" d="M484.226 78.1092C486.121 78.9295 487.032 81.07 486.242 82.8961C485.451 84.7223 483.267 85.523 481.372 84.7027L480.815 85.9886C483.431 87.1209 486.434 85.9749 487.526 83.4522C488.618 80.9296 487.399 77.9557 484.783 76.8234L484.226 78.1092Z" fill="white"/>
<path fill-rule="evenodd" clip-rule="evenodd" d="M481.203 84.7256C479.308 83.9052 478.397 81.7648 479.188 79.9386C479.978 78.1124 482.163 77.3117 484.058 78.132L484.614 76.8462C481.994 75.712 478.991 76.8581 477.899 79.3807C476.807 81.9033 478.027 84.8773 480.647 86.0114L481.203 84.7256Z" fill="white"/>
<path fill-rule="evenodd" clip-rule="evenodd" d="M479.241 89.1693C481.136 89.9896 482.047 92.13 481.257 93.9562C480.466 95.7823 478.282 96.5831 476.387 95.7627L475.83 97.0486C478.446 98.1809 481.449 97.0349 482.541 94.5122C483.633 91.9896 482.414 89.0157 479.798 87.8834L479.241 89.1693Z" fill="white"/>
<path fill-rule="evenodd" clip-rule="evenodd" d="M476.219 95.7857C474.323 94.9654 473.413 92.825 474.203 90.9988C474.994 89.1726 477.178 88.3719 479.073 89.1922L479.629 87.9064C477.009 86.7722 474.006 87.9182 472.914 90.4409C471.822 92.9635 473.042 95.9374 475.662 97.0716L476.219 95.7857Z" fill="white"/>
<path fill-rule="evenodd" clip-rule="evenodd" d="M474.257 100.229C476.152 101.05 477.063 103.19 476.272 105.016C475.482 106.843 473.298 107.643 471.403 106.823L470.846 108.109C473.462 109.241 476.465 108.095 477.557 105.572C478.649 103.05 477.429 100.076 474.813 98.9436L474.257 100.229Z" fill="white"/>
<path fill-rule="evenodd" clip-rule="evenodd" d="M471.234 106.846C469.339 106.026 468.428 103.885 469.219 102.059C470.009 100.233 472.193 99.4321 474.088 100.252L474.645 98.9666C472.025 97.8324 469.022 98.9784 467.93 101.501C466.838 104.024 468.058 106.998 470.678 108.132L471.234 106.846Z" fill="white"/>
<path fill-rule="evenodd" clip-rule="evenodd" d="M499.182 71.878C501.077 72.6984 501.988 74.8388 501.198 76.665C500.407 78.4912 498.223 79.2919 496.328 78.4715L495.771 79.7574C498.387 80.8897 501.39 79.7437 502.482 77.221C503.574 74.6984 502.355 71.7245 499.739 70.5922L499.182 71.878Z" fill="white"/>
<path fill-rule="evenodd" clip-rule="evenodd" d="M496.16 78.4945C494.265 77.6741 493.354 75.5337 494.145 73.7075C494.935 71.8814 497.119 71.0806 499.014 71.901L499.571 70.6151C496.951 69.481 493.948 70.627 492.856 73.1496C491.764 75.6723 492.983 78.6462 495.603 79.7803L496.16 78.4945Z" fill="white"/>
<path fill-rule="evenodd" clip-rule="evenodd" d="M495.442 82.9382C497.337 83.7585 498.248 85.8989 497.457 87.7251C496.667 89.5513 494.483 90.352 492.588 89.5317L492.031 90.8175C494.647 91.9499 497.65 90.8038 498.742 88.2812C499.834 85.7586 498.614 82.7847 495.999 81.6523L495.442 82.9382Z" fill="white"/>
<path fill-rule="evenodd" clip-rule="evenodd" d="M492.419 89.5547C490.524 88.7343 489.613 86.5939 490.404 84.7677C491.194 82.9415 493.378 82.1408 495.273 82.9612L495.83 81.6753C493.21 80.5411 490.207 81.6872 489.115 84.2098C488.023 86.7324 489.243 89.7064 491.863 90.8405L492.419 89.5547Z" fill="white"/>
<path fill-rule="evenodd" clip-rule="evenodd" d="M490.458 93.9985C492.353 94.8188 493.264 96.9592 492.473 98.7854C491.683 100.612 489.498 101.412 487.603 100.592L487.047 101.878C489.663 103.01 492.666 101.864 493.758 99.3415C494.85 96.8188 493.63 93.845 491.014 92.7126L490.458 93.9985Z" fill="white"/>
<path fill-rule="evenodd" clip-rule="evenodd" d="M487.435 100.615C485.54 99.7946 484.629 97.6542 485.419 95.828C486.21 94.0018 488.394 93.2011 490.289 94.0215L490.846 92.7356C488.226 91.6014 485.223 92.7475 484.131 95.2701C483.039 97.7927 484.258 100.767 486.878 101.901L487.435 100.615Z" fill="white"/>
<path fill-rule="evenodd" clip-rule="evenodd" d="M485.473 105.059C487.368 105.879 488.279 108.019 487.489 109.846C486.698 111.672 484.514 112.473 482.619 111.652L482.062 112.938C484.678 114.07 487.681 112.924 488.773 110.402C489.865 107.879 488.646 104.905 486.03 103.773L485.473 105.059Z" fill="white"/>
<path fill-rule="evenodd" clip-rule="evenodd" d="M482.45 111.675C480.555 110.855 479.644 108.714 480.435 106.888C481.225 105.062 483.409 104.261 485.304 105.082L485.861 103.796C483.241 102.662 480.238 103.808 479.146 106.33C478.054 108.853 479.273 111.827 481.893 112.961L482.45 111.675Z" fill="white"/>
<path d="M813.06 305.506H186.935V323.232H813.06V305.506Z" fill="black"/>
<path fill-rule="evenodd" clip-rule="evenodd" d="M636.301 296.077H644.284V292.733H656.746V296.077H665.243V292.733H677.706V296.077H686.207V292.733H698.669V296.077H701.323C702.542 296.077 703.709 296.563 704.574 297.427C705.433 298.286 705.919 299.454 705.919 300.673V305.335H615.636C615.636 305.335 615.636 303 615.636 300.673C615.636 299.454 616.122 298.286 616.982 297.427C617.846 296.563 619.013 296.077 620.233 296.077H623.839V292.733H636.301V296.077Z" fill="#D2D3D5"/>
<path d="M326.45 294.29H216.844V306.797H326.45V294.29Z" fill="white"/>
<path fill-rule="evenodd" clip-rule="evenodd" d="M276.139 292.109V295.846H219.335V303.885H276.139V307.622H217.467C216.435 307.622 215.598 306.786 215.598 305.754V293.978C215.598 292.946 216.435 292.109 217.467 292.109H276.139Z" fill="black"/>
<path fill-rule="evenodd" clip-rule="evenodd" d="M276.486 292.109H328.388C329.421 292.109 330.257 292.946 330.257 293.978V305.754C330.257 306.786 329.421 307.622 328.388 307.622H276.486C274.747 305.791 275.412 304.768 276.486 303.885H326.52V295.846H276.486C275.778 294.468 275.604 293.189 276.486 292.109Z" fill="black"/>
<path fill-rule="evenodd" clip-rule="evenodd" d="M282.895 294.614L283.201 306.348C283.228 307.38 284.086 308.193 285.117 308.169C286.148 308.141 286.963 307.282 286.937 306.25L286.631 294.516C286.604 293.488 285.745 292.671 284.714 292.699C283.683 292.727 282.868 293.586 282.895 294.614ZM306.356 289.149V305.628C306.356 306.661 307.193 307.497 308.224 307.497C309.255 307.497 310.093 306.661 310.093 305.628V289.149C310.093 288.117 309.255 287.28 308.224 287.28C307.193 287.28 306.356 288.117 306.356 289.149ZM294.842 289.42V304.568C294.842 305.6 295.679 306.436 296.71 306.436C297.742 306.436 298.579 305.6 298.579 304.568V289.42C298.579 288.387 297.742 287.551 296.71 287.551C295.679 287.551 294.842 288.387 294.842 289.42ZM317.337 289.312V304.171C317.337 305.199 318.174 306.039 319.206 306.039C320.238 306.039 321.074 305.199 321.074 304.171V289.312C321.074 288.285 320.238 287.444 319.206 287.444C318.174 287.444 317.337 288.285 317.337 289.312Z" fill="black"/>
<path fill-rule="evenodd" clip-rule="evenodd" d="M354.471 205.468H351.164C349.323 205.468 347.829 203.974 347.829 202.133C347.829 200.292 349.323 198.798 351.164 198.798H434.113C435.958 198.798 437.448 200.292 437.448 202.133C437.448 203.974 435.958 205.468 434.113 205.468H432.571C434.248 206.058 435.794 207.02 437.074 208.303C439.326 210.551 440.587 213.6 440.587 216.779V305.37H346.451C346.451 305.37 346.451 243.452 346.451 216.779C346.451 213.6 347.717 210.551 349.963 208.303C351.248 207.02 352.789 206.058 354.471 205.468Z" fill="#FFF4E5"/>
<path fill-rule="evenodd" clip-rule="evenodd" d="M432.924 205.497C434.119 205.916 435.245 206.525 436.259 207.304L348.942 209.976C349.349 209.391 349.807 208.841 350.316 208.331C351.6 207.048 353.142 206.086 354.823 205.497H432.924Z" fill="#F4978B"/>
<path d="M379.289 220.912L348.943 230.11L364.888 282.715L395.234 273.517L379.289 220.912Z" fill="#F4978B"/>
<path fill-rule="evenodd" clip-rule="evenodd" d="M372.776 246.306C376.336 246.306 379.227 249.197 379.227 252.759C379.227 256.32 376.336 259.211 372.776 259.211C372.001 259.211 371.375 259.839 371.375 260.612C371.375 261.386 372.001 262.014 372.776 262.014C377.882 262.014 382.03 257.867 382.03 252.759C382.03 247.651 377.882 243.503 372.776 243.503C372.001 243.503 371.375 244.132 371.375 244.905C371.375 245.678 372.001 246.306 372.776 246.306Z" fill="#DE6647"/>
<path fill-rule="evenodd" clip-rule="evenodd" d="M371.906 259.211C368.342 259.211 365.455 256.32 365.455 252.759C365.455 249.197 368.342 246.306 371.906 246.306C372.677 246.306 373.308 245.678 373.308 244.905C373.308 244.132 372.677 243.503 371.906 243.503C366.796 243.503 362.653 247.651 362.653 252.759C362.653 257.867 366.796 262.014 371.906 262.014C372.677 262.014 373.308 261.386 373.308 260.612C373.308 259.839 372.677 259.211 371.906 259.211Z" fill="#DE6647"/>
<path fill-rule="evenodd" clip-rule="evenodd" d="M375.188 279.55L372.768 272.144C372.45 271.164 372.988 270.109 373.964 269.789C374.945 269.469 376 270.005 376.323 270.985L378.766 278.466L375.188 279.55ZM380.218 278.025L378.588 272.755C378.285 271.77 378.836 270.723 379.821 270.418C380.807 270.113 381.853 270.665 382.157 271.65L383.796 276.941L380.218 278.025ZM368.344 224.187L370.984 232.718C371.287 233.703 370.736 234.751 369.75 235.055C368.765 235.36 367.719 234.808 367.415 233.822L364.766 225.271L368.344 224.187ZM362.492 225.96L364.71 232.429C365.047 233.404 364.523 234.467 363.547 234.802C362.571 235.136 361.511 234.616 361.174 233.64L358.914 227.045L362.492 225.96Z" fill="#DE6647"/>
<path d="M438.15 251.547L407.517 243.354L393.315 296.456L423.948 304.649L438.15 251.547Z" fill="#F4978B"/>
<path fill-rule="evenodd" clip-rule="evenodd" d="M419.691 269.682C422.715 271.559 423.646 275.541 421.767 278.566C419.889 281.592 415.908 282.523 412.884 280.645C412.225 280.236 411.362 280.439 410.954 281.097C410.546 281.754 410.747 282.617 411.405 283.026C415.743 285.719 421.454 284.384 424.148 280.045C426.843 275.705 425.506 269.994 421.169 267.301C420.51 266.892 419.647 267.095 419.239 267.752C418.831 268.409 419.032 269.273 419.691 269.682Z" fill="#DE6647"/>
<path fill-rule="evenodd" clip-rule="evenodd" d="M413.323 280.581C410.295 278.701 409.367 274.723 411.246 271.697C413.124 268.672 417.102 267.738 420.13 269.618C420.784 270.024 421.651 269.824 422.059 269.167C422.467 268.51 422.263 267.643 421.608 267.237C417.267 264.541 411.559 265.879 408.865 270.219C406.17 274.558 407.503 280.267 411.844 282.962C412.499 283.369 413.366 283.168 413.774 282.511C414.182 281.854 413.977 280.988 413.323 280.581Z" fill="#DE6647"/>
<path fill-rule="evenodd" clip-rule="evenodd" d="M404.601 299.437L406.452 291.869C406.699 290.869 407.712 290.255 408.71 290.499C409.713 290.744 410.327 291.756 410.083 292.759L408.213 300.404L404.601 299.437ZM409.679 300.795L411.074 295.458C411.336 294.461 412.357 293.862 413.355 294.123C414.353 294.384 414.951 295.405 414.689 296.402L413.291 301.762L409.679 300.795ZM427.991 248.793L425.733 257.433C425.471 258.43 424.45 259.029 423.452 258.768C422.454 258.507 421.857 257.486 422.118 256.488L424.379 247.826L427.991 248.793ZM422.083 247.212L420.556 253.878C420.327 254.884 419.322 255.511 418.316 255.28C417.31 255.05 416.684 254.048 416.913 253.042L418.471 246.246L422.083 247.212Z" fill="#DE6647"/>
<path d="M408.925 237.94C415.174 237.94 420.24 232.874 420.24 226.625C420.24 220.376 415.174 215.311 408.925 215.311C402.677 215.311 397.611 220.376 397.611 226.625C397.611 232.874 402.677 237.94 408.925 237.94Z" fill="#FFCF84"/>
<path fill-rule="evenodd" clip-rule="evenodd" d="M409.543 219.383C413.632 219.383 416.953 222.705 416.953 226.797C416.953 230.889 413.632 234.211 409.543 234.211C409.15 234.211 408.826 234.53 408.826 234.923C408.826 235.316 409.15 235.635 409.543 235.635C414.418 235.635 418.377 231.675 418.377 226.797C418.377 221.919 414.418 217.959 409.543 217.959C409.15 217.959 408.826 218.278 408.826 218.671C408.826 219.064 409.15 219.383 409.543 219.383Z" fill="#FDA92F"/>
<path fill-rule="evenodd" clip-rule="evenodd" d="M408.942 234.211C404.849 234.211 401.528 230.889 401.528 226.797C401.528 222.705 404.849 219.383 408.942 219.383C409.331 219.383 409.65 219.064 409.65 218.671C409.65 218.278 409.331 217.959 408.942 217.959C404.062 217.959 400.104 221.919 400.104 226.797C400.104 231.675 404.062 235.635 408.942 235.635C409.331 235.635 409.65 235.316 409.65 234.923C409.65 234.53 409.331 234.211 408.942 234.211Z" fill="#FDA92F"/>
<path fill-rule="evenodd" clip-rule="evenodd" d="M406.776 237.772L406.879 235.067C406.893 234.674 407.224 234.368 407.617 234.383C408.014 234.398 408.317 234.729 408.303 235.122L408.196 237.894C407.715 237.883 407.238 237.842 406.776 237.772ZM410.919 237.629L410.223 234.865C410.13 234.484 410.359 234.096 410.742 234.001C411.12 233.905 411.508 234.136 411.606 234.517L412.288 237.232C411.844 237.392 411.386 237.525 410.919 237.629ZM399.05 232.864L401.18 231.182C401.488 230.938 401.937 230.991 402.18 231.299C402.423 231.608 402.371 232.056 402.063 232.299L399.914 233.996C399.606 233.638 399.316 233.26 399.05 232.864ZM397.611 229.806L400.274 228.363C400.619 228.176 401.054 228.304 401.241 228.65C401.428 228.995 401.297 229.428 400.951 229.615L398.111 231.156C397.915 230.72 397.751 230.269 397.611 229.806ZM419.649 228.254L417.08 228.135C416.688 228.116 416.384 227.783 416.403 227.391C416.422 226.998 416.753 226.694 417.146 226.712L419.771 226.834C419.761 227.315 419.719 227.789 419.649 228.254ZM416.375 218.502C416.716 218.835 417.034 219.189 417.333 219.563L415.245 221.707C414.969 221.988 414.521 221.995 414.24 221.721C413.955 221.447 413.951 220.995 414.226 220.714L416.375 218.502ZM402.824 216.773L404.674 219.535C404.894 219.862 404.805 220.304 404.478 220.523C404.151 220.742 403.707 220.654 403.492 220.328L401.638 217.56C402.011 217.273 402.409 217.01 402.824 216.773ZM409.443 215.311C409.92 215.352 410.391 215.423 410.854 215.522L410.574 218.349C410.531 218.741 410.181 219.026 409.793 218.987C409.401 218.948 409.116 218.6 409.154 218.209L409.443 215.311Z" fill="#FDA92F"/>
<path d="M378.829 250.311C378.12 256.52 382.578 262.127 388.787 262.836C394.995 263.545 400.603 259.087 401.312 252.879C402.021 246.67 397.563 241.062 391.354 240.353C385.146 239.644 379.538 244.103 378.829 250.311Z" fill="#FFCF84"/>
<path fill-rule="evenodd" clip-rule="evenodd" d="M397.361 252.625C396.897 256.687 393.219 259.61 389.154 259.146C385.088 258.682 382.164 255.005 382.628 250.943C382.673 250.552 382.392 250.194 382.002 250.15C381.612 250.105 381.258 250.39 381.213 250.781C380.66 255.625 384.146 260.008 388.992 260.561C393.838 261.114 398.222 257.631 398.776 252.787C398.82 252.396 398.54 252.038 398.149 251.994C397.759 251.949 397.405 252.234 397.361 252.625Z" fill="#FDA92F"/>
<path fill-rule="evenodd" clip-rule="evenodd" d="M382.952 250.912C383.417 246.845 387.094 243.922 391.16 244.386C395.225 244.85 398.149 248.527 397.685 252.594C397.641 252.98 397.922 253.333 398.312 253.378C398.702 253.422 399.056 253.142 399.1 252.756C399.653 247.907 396.168 243.525 391.322 242.971C386.475 242.418 382.091 245.902 381.537 250.75C381.493 251.136 381.774 251.489 382.164 251.534C382.555 251.578 382.908 251.298 382.952 250.912Z" fill="#FDA92F"/>
<path fill-rule="evenodd" clip-rule="evenodd" d="M379.175 248.604L381.851 249.013C382.24 249.072 382.507 249.436 382.447 249.824C382.387 250.217 382.023 250.481 381.635 250.423L378.892 250.001C378.958 249.525 379.053 249.056 379.175 248.604ZM378.848 252.737L381.673 252.359C382.062 252.31 382.421 252.581 382.472 252.972C382.524 253.359 382.25 253.718 381.861 253.772L379.086 254.142C378.977 253.683 378.898 253.213 378.848 252.737ZM384.928 241.485L386.357 243.792C386.565 244.126 386.461 244.566 386.128 244.772C385.794 244.979 385.354 244.877 385.147 244.543L383.705 242.215C384.096 241.95 384.505 241.705 384.928 241.485ZM388.13 240.403L389.261 243.212C389.408 243.576 389.231 243.994 388.866 244.14C388.502 244.286 388.087 244.107 387.94 243.743L386.732 240.746C387.187 240.601 387.654 240.489 388.13 240.403ZM387.171 262.475L387.581 259.936C387.644 259.548 388.01 259.284 388.397 259.347C388.785 259.41 389.049 259.774 388.987 260.162L388.568 262.756C388.091 262.693 387.626 262.597 387.171 262.475ZM397.232 260.328C396.862 260.629 396.474 260.904 396.069 261.159L394.176 258.841C393.927 258.535 393.972 258.089 394.276 257.842C394.581 257.59 395.029 257.636 395.278 257.942L397.232 260.328ZM400.487 247.061L397.533 248.585C397.183 248.766 396.754 248.628 396.573 248.278C396.393 247.928 396.53 247.498 396.879 247.321L399.84 245.793C400.082 246.197 400.298 246.621 400.487 247.061ZM401.189 253.803C401.094 254.272 400.97 254.732 400.818 255.18L398.042 254.581C397.657 254.495 397.413 254.115 397.496 253.734C397.579 253.348 397.958 253.105 398.342 253.186L401.189 253.803Z" fill="#FDA92F"/>
<path d="M356.883 301.125C361.463 305.377 368.622 305.111 372.874 300.532C377.125 295.953 376.86 288.794 372.28 284.542C367.701 280.29 360.542 280.556 356.29 285.135C352.038 289.714 352.304 296.873 356.883 301.125Z" fill="#FFCF84"/>
<path fill-rule="evenodd" clip-rule="evenodd" d="M369.776 287.721C372.772 290.503 372.946 295.198 370.161 298.196C367.377 301.195 362.682 301.37 359.686 298.588C359.398 298.32 358.944 298.334 358.676 298.622C358.409 298.91 358.429 299.364 358.717 299.632C362.29 302.949 367.886 302.74 371.205 299.165C374.524 295.591 374.317 289.995 370.745 286.678C370.456 286.41 370.002 286.424 369.735 286.712C369.467 287 369.487 287.454 369.776 287.721Z" fill="#FDA92F"/>
<path fill-rule="evenodd" clip-rule="evenodd" d="M359.408 298.506C356.408 295.721 356.234 291.027 359.019 288.028C361.803 285.029 366.498 284.855 369.497 287.64C369.782 287.904 370.233 287.887 370.5 287.599C370.767 287.311 370.751 286.86 370.466 286.596C366.89 283.275 361.294 283.484 357.975 287.059C354.656 290.633 354.863 296.229 358.439 299.55C358.724 299.814 359.174 299.797 359.442 299.509C359.709 299.221 359.693 298.77 359.408 298.506Z" fill="#FDA92F"/>
<path fill-rule="evenodd" clip-rule="evenodd" d="M355.422 299.801L357.338 297.889C357.615 297.61 358.067 297.611 358.344 297.89C358.625 298.171 358.622 298.62 358.344 298.898L356.379 300.857C356.034 300.521 355.713 300.167 355.422 299.801ZM358.556 302.515L359.926 300.016C360.117 299.673 360.548 299.545 360.894 299.736C361.237 299.923 361.363 300.356 361.176 300.702L359.829 303.156C359.394 302.971 358.969 302.757 358.556 302.515ZM353.099 290.948L355.805 291.164C356.197 291.195 356.489 291.539 356.458 291.93C356.426 292.321 356.083 292.615 355.692 292.584L352.963 292.365C352.98 291.893 353.025 291.419 353.099 290.948ZM354.126 287.728L357.059 288.482C357.44 288.58 357.671 288.969 357.572 289.35C357.474 289.73 357.084 289.958 356.704 289.86L353.574 289.057C353.727 288.604 353.914 288.162 354.126 287.728ZM371.332 301.585L369.531 299.75C369.256 299.469 369.26 299.018 369.541 298.744C369.822 298.468 370.271 298.472 370.547 298.752L372.388 300.627C372.053 300.973 371.7 301.292 371.332 301.585ZM375.568 292.211C375.591 292.687 375.583 293.162 375.548 293.64L372.559 293.79C372.165 293.809 371.832 293.509 371.814 293.117C371.791 292.722 372.095 292.388 372.488 292.369L375.568 292.211ZM366.814 281.723L366.29 285.006C366.229 285.395 365.863 285.659 365.474 285.597C365.086 285.535 364.82 285.169 364.885 284.783L365.409 281.493C365.878 281.537 366.348 281.615 366.814 281.723ZM372.66 285.155C372.981 285.51 373.278 285.883 373.549 286.27L371.42 288.151C371.123 288.41 370.672 288.381 370.415 288.088C370.153 287.793 370.182 287.343 370.475 287.082L372.66 285.155Z" fill="#FDA92F"/>
<path d="M427.933 304.75C434.072 303.583 438.102 297.66 436.935 291.521C435.768 285.383 429.846 281.352 423.707 282.519C417.568 283.686 413.537 289.609 414.704 295.748C415.871 301.886 421.794 305.917 427.933 304.75Z" fill="#FFCF84"/>
<path fill-rule="evenodd" clip-rule="evenodd" d="M424.778 286.52C428.794 285.757 432.677 288.4 433.442 292.42C434.206 296.44 431.563 300.324 427.547 301.088C427.16 301.161 426.902 301.535 426.975 301.921C427.049 302.307 427.426 302.56 427.813 302.487C432.602 301.576 435.752 296.946 434.841 292.154C433.93 287.362 429.301 284.211 424.512 285.121C424.125 285.195 423.867 285.569 423.94 285.955C424.013 286.341 424.391 286.594 424.778 286.52Z" fill="#FDA92F"/>
<path fill-rule="evenodd" clip-rule="evenodd" d="M426.803 301.129C422.782 301.893 418.898 299.25 418.134 295.23C417.37 291.21 420.013 287.326 424.034 286.561C424.416 286.489 424.669 286.116 424.596 285.73C424.522 285.344 424.15 285.09 423.768 285.162C418.974 286.074 415.824 290.704 416.735 295.496C417.646 300.288 422.275 303.439 427.069 302.528C427.451 302.455 427.704 302.082 427.631 301.696C427.557 301.31 427.185 301.056 426.803 301.129Z" fill="#FDA92F"/>
<path fill-rule="evenodd" clip-rule="evenodd" d="M425.79 304.987L425.386 302.31C425.326 301.922 425.595 301.559 425.983 301.5C426.376 301.441 426.736 301.71 426.796 302.098L427.208 304.842C426.733 304.921 426.257 304.969 425.79 304.987ZM429.834 304.072L428.634 301.487C428.471 301.13 428.623 300.707 428.982 300.541C429.335 300.376 429.76 300.532 429.927 300.887L431.104 303.427C430.698 303.667 430.273 303.883 429.834 304.072ZM417.283 301.608L419.062 299.558C419.319 299.261 419.769 299.229 420.066 299.486C420.362 299.744 420.395 300.193 420.138 300.491L418.344 302.559C417.974 302.264 417.619 301.947 417.283 301.608ZM415.299 298.872L417.645 296.958C417.95 296.709 418.4 296.754 418.649 297.059C418.897 297.363 418.849 297.812 418.544 298.061L416.042 300.105C415.768 299.713 415.523 299.301 415.299 298.872ZM436.659 293.232L434.113 293.595C433.724 293.65 433.364 293.379 433.309 292.99C433.254 292.601 433.523 292.24 433.912 292.185L436.514 291.814C436.594 292.288 436.641 292.762 436.659 293.232ZM431.621 284.263C432.019 284.527 432.397 284.815 432.76 285.126L431.109 287.623C430.891 287.951 430.452 288.041 430.125 287.824C429.794 287.608 429.705 287.165 429.924 286.837L431.621 284.263ZM417.986 285.095L420.319 287.463C420.596 287.743 420.591 288.194 420.311 288.47C420.031 288.746 419.578 288.743 419.306 288.463L416.967 286.09C417.281 285.739 417.622 285.406 417.986 285.095ZM424.215 282.422C424.691 282.374 425.168 282.355 425.641 282.367L425.893 285.196C425.925 285.589 425.634 285.935 425.246 285.969C424.854 286.004 424.508 285.715 424.472 285.323L424.215 282.422Z" fill="#FDA92F"/>
<path fill-rule="evenodd" clip-rule="evenodd" d="M397.384 303.949L342.574 399.393H320.031C320.031 399.393 313.105 414.191 323.6 419.609H426.994C427.102 419.609 427.205 419.619 427.312 419.633C429.372 419.782 441.138 419.446 450.448 395.324C465.573 356.143 480.903 333.54 496.388 303.949H397.384Z" fill="#E9E9EB"/>
<path d="M374.715 391.781C383.691 393.058 393.302 386.981 396.18 378.206C399.059 369.431 394.115 361.283 385.139 360.005C376.162 358.728 366.552 364.805 363.673 373.58C360.795 382.355 365.738 390.504 374.715 391.781Z" fill="white"/>
<path d="M483.901 309.058L398.795 308.155L395.152 314.801L480.258 315.704L483.901 309.058Z" fill="#BABDC2"/>
<path d="M478.07 321.229L392.563 320.461L388.931 327.113L474.437 327.882L478.07 321.229Z" fill="#BABDC2"/>
<path d="M472.113 334.532L386.332 332.3L382.591 338.888L468.372 341.119L472.113 334.532Z" fill="#BABDC2"/>
<path d="M465.434 347.837L380.101 344.14L376.255 350.661L461.588 354.358L465.434 347.837Z" fill="#BABDC2"/>
<path d="M455.562 361.546L410.011 359.25L406.816 365.61L452.368 367.907L455.562 361.546Z" fill="#BABDC2"/>
<path d="M448.249 374.963L417.488 373.114L414.824 379.505L445.586 381.353L448.249 374.963Z" fill="#BABDC2"/>
<path d="M442.097 388.462L401.287 385.421L399.058 391.842L439.869 394.883L442.097 388.462Z" fill="#BABDC2"/>
<path fill-rule="evenodd" clip-rule="evenodd" d="M344.764 395.858H418.619C418.703 395.858 418.787 395.867 418.871 395.877C419.665 395.984 420.333 396.419 420.642 397.428C420.791 397.913 420.805 398.88 420.613 400.188C419.936 404.873 416.914 416.696 429.012 419.624C428.297 419.704 427.76 419.69 427.452 419.671C427.344 419.657 427.242 419.648 427.134 419.648H420.814C420.403 419.283 420.025 418.9 419.675 418.503C415.415 413.664 415.872 406.658 416.564 401.963C416.68 401.155 416.797 400.282 416.886 399.595L342.714 399.431L344.764 395.858Z" fill="black"/>
<path d="M372.051 379.149C373.326 380.801 375.133 381.84 377.483 382.327C380.306 382.846 382.014 382.191 382.697 380.38C383.204 378.895 382.573 377.815 380.802 377.142C379.963 376.86 379.064 376.565 378.083 376.225C376.333 375.586 375.131 374.665 374.498 373.496C373.845 372.293 373.782 370.965 374.28 369.507C374.873 367.769 375.957 366.485 377.592 365.667C379.166 364.837 381.072 364.639 383.29 365.04C385.964 365.62 388.054 366.773 389.571 368.473L386.903 370.615C385.635 369.322 384.032 368.443 382.105 368.039C381.107 367.844 380.183 367.904 379.355 368.251C378.496 368.593 377.884 369.251 377.528 370.198C377.327 370.787 377.397 371.339 377.718 371.909C378.039 372.48 378.721 372.941 379.713 373.343C380.259 373.539 381.037 373.81 382.028 374.122C383.969 374.768 385.221 375.729 385.816 377.011C386.39 378.258 386.453 379.586 385.965 381.015C384.572 384.81 381.369 386.251 376.419 385.349C373.242 384.731 370.805 383.271 369.128 381.002L372.051 379.149Z" fill="black"/>
<path fill-rule="evenodd" clip-rule="evenodd" d="M384.547 362.425L373.711 386.967L376.22 387.731L387.149 362.974L384.547 362.425Z" fill="black"/>
<path fill-rule="evenodd" clip-rule="evenodd" d="M615.333 356.628C614.114 355.292 612.488 354.55 611.166 355.418C606.523 358.469 603.356 361.724 598.802 364.896C584.723 374.705 564.974 377.438 556.244 393.53C547.392 409.832 546.944 429.81 539.068 446.752C528.46 469.584 513.274 489.843 502.026 512.339C488.097 540.183 466.405 601.243 466.405 601.243C459.398 601.14 424.846 605.648 403.84 608.89C403.042 609.011 402.476 609.731 402.537 610.534C402.598 611.342 403.271 611.963 404.079 611.963C453.601 611.963 598.811 611.963 632.592 611.963C634.316 611.963 635.909 611.043 636.773 609.553C637.637 608.063 637.647 606.223 636.787 604.728C632.462 597.165 624.974 592.733 616.636 590.668C610.223 589.08 604.034 589.86 597.573 590.406C597.331 590.425 597.022 590.467 596.835 590.276C596.789 590.229 596.723 590.145 596.695 590.089C594.981 586.529 595.896 566.322 595.953 561.777C596.191 542.841 597.036 523.848 598.662 504.977C599.185 498.919 600.269 481.5 600.269 481.5C600.269 481.5 614.833 479.496 619.014 478.548C629.309 476.222 637.717 469.556 643.602 460.887C652.332 448.027 652.898 430.562 656.849 415.932C660.152 403.685 666.332 394.142 671.615 382.908C674.357 377.078 673.39 368.465 667.051 365.33C660.853 362.262 654.355 368.675 650.455 372.776C638.044 385.846 637.408 403.829 626.805 416.792C619.285 425.98 604.113 427.666 604.113 427.666C604.113 427.666 603.646 416.46 604.113 413.349C606.453 397.78 615.23 387.882 618.803 373.556C619.836 369.408 619.252 360.907 615.333 356.628Z" fill="#DD6140"/>
<path fill-rule="evenodd" clip-rule="evenodd" d="M580.279 487.996C587.033 484.544 600.177 481.536 600.177 481.536C600.177 481.536 599.832 487.114 599.435 493.051C594.367 491.215 588.014 490.673 580.998 490.79C580.316 490.799 579.713 490.337 579.545 489.678C579.372 489.015 579.676 488.319 580.279 487.996Z" fill="black"/>
<path fill-rule="evenodd" clip-rule="evenodd" d="M586.488 377.422L589.486 379.631C590.318 380.243 591.49 380.065 592.102 379.234C592.714 378.407 592.537 377.235 591.705 376.623L588.706 374.413C587.875 373.802 586.707 373.979 586.095 374.806C585.483 375.637 585.656 376.81 586.488 377.422Z" fill="black"/>
<path fill-rule="evenodd" clip-rule="evenodd" d="M596.229 589.365C596.103 589.169 596.014 588.949 595.963 588.706C592.076 568.947 586.873 555.425 580.983 546.452C575.335 537.847 569.099 533.536 562.859 532.004C550.27 528.907 537.887 536.932 530.997 542.542C527.858 545.092 525.486 547.587 525.486 547.587C525.126 548.03 524.565 548.301 523.949 548.273C522.921 548.222 522.122 547.344 522.174 546.316C522.174 546.288 522.132 545.723 522.72 545.074C523.117 544.639 525.266 542.388 528.639 539.641C536.206 533.475 549.915 524.974 563.751 528.374C570.725 530.089 577.792 534.778 584.108 544.401C588.307 550.796 592.193 559.414 595.519 570.853C595.384 577.743 595.37 586.207 596.229 589.365ZM563.784 386.864C563.784 386.864 557.73 402.073 553.998 411.462C551.76 417.077 554.096 423.476 559.416 426.339C561.841 427.652 564.298 428.624 566.783 429.235C570.155 430.076 573.728 429.31 576.466 427.171C579.208 425.027 580.805 421.743 580.805 418.263C580.805 406.487 580.805 387.551 580.805 387.551C580.805 386.523 579.969 385.682 578.937 385.682C577.909 385.682 577.068 386.523 577.068 387.551C577.068 387.551 577.068 406.487 577.068 418.263C577.068 420.594 575.999 422.789 574.163 424.223C572.332 425.662 569.94 426.171 567.679 425.611C565.489 425.069 563.331 424.209 561.191 423.051C557.534 421.084 555.936 416.694 557.468 412.845C561.205 403.456 567.259 388.242 567.259 388.242C567.637 387.285 567.17 386.196 566.213 385.818C565.25 385.435 564.167 385.902 563.784 386.864ZM603.782 423.934C603.838 426.078 603.904 427.666 603.904 427.666C603.904 427.666 604.203 427.633 604.74 427.554C602.432 428.026 600.298 428.227 598.294 428.208C597.261 428.198 596.435 427.353 596.444 426.325C596.453 425.293 597.294 424.462 598.326 424.471C600.027 424.485 601.834 424.317 603.782 423.934ZM670.775 368.815C671.471 369.866 671.985 371.043 672.326 372.281C665.23 377.419 659.924 385.243 659.672 385.706C659.181 386.612 658.046 386.948 657.14 386.458C656.234 385.967 655.897 384.832 656.388 383.926C656.668 383.403 662.736 374.448 670.775 368.815ZM663.857 364.536C664.852 364.592 665.851 364.84 666.842 365.33C667.253 365.531 667.64 365.76 668.009 366.008C664.992 368.306 658.859 373.538 652.567 382.207C651.964 383.038 650.792 383.225 649.96 382.618C649.124 382.016 648.937 380.843 649.545 380.012C654.991 372.505 660.34 367.451 663.857 364.536ZM604.754 360.104C606.692 358.515 608.64 356.941 610.957 355.418C612.279 354.55 613.904 355.292 615.123 356.628C616.048 357.637 616.786 358.88 617.366 360.248C612.059 365.755 606.197 361.346 604.754 360.104Z" fill="black"/>
<defs>
<linearGradient id="paint0_linear" x1="260.442" y1="472.984" x2="721.454" y2="201.144" gradientUnits="userSpaceOnUse">
<stop stop-color="#308883"/>
<stop offset="0.42" stop-color="#CEE0DA"/>
<stop offset="1" stop-color="#FFF0E6"/>
</linearGradient>
<linearGradient id="paint1_linear" x1="109.358" y1="146.363" x2="-118.143" y2="431.433" gradientUnits="userSpaceOnUse">
<stop stop-color="#A6E5E4"/>
<stop offset="0.47" stop-color="#CCDFDA"/>
<stop offset="1" stop-color="#FFF0E6"/>
</linearGradient>
<linearGradient id="paint2_linear" x1="778.048" y1="206.727" x2="918.548" y2="343.544" gradientUnits="userSpaceOnUse">
<stop stop-color="#FFBF2F"/>
<stop offset="1" stop-color="#FD9500"/>
</linearGradient>
<linearGradient id="paint3_linear" x1="874.645" y1="462.494" x2="645.49" y2="308.036" gradientUnits="userSpaceOnUse">
<stop stop-color="#FFBF2F"/>
<stop offset="0.48" stop-color="#FEB422"/>
<stop offset="1" stop-color="#FD9500"/>
</linearGradient>
</defs>
</svg>
