<svg width="527" height="419" viewBox="0 0 527 419" fill="none" xmlns="http://www.w3.org/2000/svg">
<path d="M442.253 179.453H61.7681V409.188H442.253V179.453Z" fill="#FFF0E6"/>
<path fill-rule="evenodd" clip-rule="evenodd" d="M429.744 334.405H370.997V390.763H429.744V334.405ZM356.661 290.048H297.917V390.763H356.661V290.048ZM283.581 270.931H224.835V390.763H283.581V270.931ZM210.5 248.187H151.754V390.763H210.5V248.187ZM137.419 350.503H78.673V390.763H137.419V350.503Z" fill="#C0FB86"/>
<path fill-rule="evenodd" clip-rule="evenodd" d="M432.018 254.926L436.726 261.34L449.021 232.037L417.933 235.737L422.902 242.508L278.092 354.242L255.751 331.25L232.002 352.807L137.431 223.322L104.782 252.378C93.1417 240.996 83.3361 231.023 76.0292 224.769L66.4203 236.547C74.5833 243.532 85.9118 255.277 99.4763 268.384L104.488 273.226L135.193 245.899L229.859 375.514L255.236 352.481L276.808 374.681L432.018 254.926Z" fill="#04CD00"/>
<path fill-rule="evenodd" clip-rule="evenodd" d="M404.618 251.397L401.576 99.759L279.864 73.2353L148.176 43.7314C124.678 38.4669 100.197 39.625 77.3011 47.084L51.2241 55.5793L15.2547 101.658C14.5626 102.544 13.2809 102.702 12.3941 102.01C11.5076 101.318 11.3496 100.036 12.0418 99.1499L48.7776 52.0895L76.0386 43.2084C99.6298 35.523 124.855 34.3298 149.067 39.7542C198.509 50.8314 280.75 69.2567 280.736 69.2542L405.587 96.4614L408.709 252.163L411.408 248.662C411.781 248.175 412.483 248.083 412.97 248.459C413.455 248.835 413.547 249.534 413.171 250.021L408.781 255.72L409.141 273.648C409.163 274.773 408.269 275.703 407.144 275.728C406.021 275.751 405.088 274.854 405.066 273.731L404.693 255.085L400.702 250.032C400.32 249.55 400.404 248.849 400.885 248.467C401.367 248.085 402.069 248.169 402.448 248.651L404.618 251.397Z" fill="black"/>
<path fill-rule="evenodd" clip-rule="evenodd" d="M120.105 89.124C120.105 89.124 84.4916 100.042 56.6315 108.582C49.1122 110.887 43.1693 116.682 40.6743 124.141C38.1794 131.599 39.4401 139.803 44.059 146.169C54.3279 160.32 64.7023 174.617 64.7023 174.617C64.7023 174.617 60.0567 175.989 60.5445 179.029L115.001 179.841L93.5216 148.309C93.5216 148.309 139.783 144.929 151.647 138.751L222.291 175.117C222.291 175.117 214.11 176.443 213.678 180.161L254.013 179.712C254.013 179.712 264.82 170.975 269.279 167.369C269.731 167.003 269.987 166.448 269.974 165.867C269.957 165.286 269.673 164.744 269.202 164.403C255.545 154.448 174.95 96.0427 159.384 92.781C159.384 92.781 143.937 82.7831 120.105 89.124Z" fill="url(#paint0_linear)"/>
<path fill-rule="evenodd" clip-rule="evenodd" d="M158.736 92.2924C159.141 92.5203 159.349 92.6548 159.349 92.6548C160.74 92.9464 162.652 93.6789 164.987 94.7771C167.302 97.2759 169.497 100.545 170.775 104.692C172.011 108.702 172.399 113.538 171.183 119.298L239.402 159.932L251.295 151.385L251.978 151.873C252.262 152.076 252.546 152.279 252.827 152.482L253.209 152.754L221.63 175.447C221.221 175.742 220.678 175.718 220.299 175.424C221.435 175.124 222.256 174.99 222.256 174.99L220.088 173.874C220.155 173.786 220.235 173.706 220.33 173.638L237.429 161.35L170.633 121.564C170.422 122.338 170.182 123.127 169.912 123.932C168.26 128.862 163.985 135.184 154.113 139.913L151.612 138.625C150.11 139.407 148.057 140.144 145.618 140.835C145.704 140.778 145.8 140.732 145.903 140.7C160.235 136.291 165.912 128.856 167.799 123.224C170.243 115.932 170.09 110.034 168.646 105.348C166.603 98.7223 162.005 94.5423 158.736 92.2924ZM147.031 88.0737C147.889 88.2581 148.706 88.4567 149.482 88.6647C149.622 89.3207 149.719 89.9824 149.825 90.5851C150.346 93.541 150.687 96.4905 150.52 99.4971C149.994 108.909 146.284 117.998 137.261 122.008C131.837 124.419 125.36 125.388 119.445 125.276C114.54 125.182 108.612 124.617 103.745 124.257C92.6258 123.435 83.4186 122.065 70.2311 123.644C65.562 124.203 62.0655 125.833 60.0477 128.651C58.0234 131.479 57.5248 135.448 58.6587 140.544C59.4408 144.058 60.9776 147.31 62.6808 150.458C65.31 155.318 68.0088 160.319 71.1413 164.883L103.853 163.401L105.327 165.565L71.7042 167.088C71.6407 167.167 71.5652 167.239 71.478 167.301C71.0224 167.623 70.4068 167.555 70.0314 167.164L59.6903 167.632L58.1234 165.473L68.5344 165.001C65.6809 160.689 63.1693 156.044 60.7208 151.518C58.9199 148.189 57.3107 144.744 56.4837 141.028C55.1783 135.161 55.9055 130.609 58.2359 127.354C60.5727 124.091 64.5596 122.079 69.9662 121.431C83.3225 119.832 92.6478 121.203 103.909 122.035C108.739 122.392 114.621 122.955 119.488 123.048C125.087 123.154 131.222 122.254 136.356 119.972C144.579 116.317 147.816 107.95 148.295 99.3726C148.453 96.5382 148.122 93.7585 147.631 90.9717C147.471 90.0654 147.393 88.9767 147.031 88.0737Z" fill="#D7441E"/>
<path fill-rule="evenodd" clip-rule="evenodd" d="M95.3075 150.832L95.7484 151.479L95.6997 151.494C95.5732 151.272 95.4423 151.051 95.3075 150.832ZM93.8929 148.756C88.1867 141.123 78.0149 134.919 72.6267 131.97C72.2101 131.743 72.0048 131.259 72.1321 130.802C72.2591 130.346 72.6849 130.037 73.1587 130.059C85.8622 131.119 99.3232 143.111 103.641 147.271C97.5772 147.854 93.483 148.153 93.483 148.153L93.8929 148.756Z" fill="#711801"/>
<path d="M93.1576 31.243C99.6753 31.4054 105.091 26.2534 105.253 19.7358C105.415 13.2181 100.263 7.80281 93.7457 7.64039C87.2281 7.47798 81.8128 12.6299 81.6504 19.1476C81.488 25.6653 86.6399 31.0805 93.1576 31.243Z" fill="#E86135"/>
<path fill-rule="evenodd" clip-rule="evenodd" d="M88.1473 8.98294C89.8309 8.1304 91.7438 7.67001 93.7616 7.72042C100.275 7.8828 105.431 13.3025 105.269 19.8159C105.145 24.7855 101.96 28.9649 97.5645 30.5948L94.6587 23.9265C95.1322 23.9742 95.6355 23.9023 96.1248 23.694C97.6174 23.0581 98.417 21.3895 97.9093 19.9702C97.4016 18.5506 95.7775 17.9145 94.285 18.5503C93.6747 18.8102 93.1804 19.243 92.8436 19.7607L88.1473 8.98294Z" fill="black"/>
<path fill-rule="evenodd" clip-rule="evenodd" d="M119.996 36.5825C106.35 35.0403 76.4746 36.4399 52.5163 38.2857C48.0011 38.6362 43.8159 40.7856 40.9006 44.2515C37.985 47.7171 36.584 52.2086 37.0118 56.7174C37.3435 60.0998 38.1793 63.5212 39.8841 66.5049C39.8841 66.5049 37.4668 73.3521 44.9102 78.2304C47.1636 79.7033 49.7343 80.6199 52.4113 80.905C58.141 81.4632 73.5875 82.532 94.3651 80.4666C94.3651 80.4666 113.007 95.4609 133.478 83.5481C149.723 74.0948 152.029 40.2033 119.996 36.5825Z" fill="url(#paint1_linear)"/>
<path fill-rule="evenodd" clip-rule="evenodd" d="M39.8766 66.5051C43.4263 69.0873 49.6186 72.3498 56.8494 72.6877C71.3875 73.3684 110.893 75.2141 110.893 75.2141C111.507 75.2428 111.983 75.7647 111.954 76.3791C111.925 76.9933 111.403 77.4684 110.789 77.4397C110.789 77.4397 71.2833 75.594 56.7453 74.9133C50.2948 74.6119 44.2518 72.0571 39.5892 67.8323C39.7 67.0053 39.8766 66.5051 39.8766 66.5051Z" fill="#D7441E"/>
<path fill-rule="evenodd" clip-rule="evenodd" d="M83.2351 36.5382C98.1227 35.9043 111.918 35.7845 120.009 36.6989C152.043 40.3196 150.312 74.2756 133.846 83.3394C115.585 93.3922 98.6235 86.6913 93.5762 80.7082C92.156 79.0249 91.2829 74.3594 91.2829 74.3594L80.3291 73.7406L67.434 57.083L83.2351 36.5382Z" fill="#D7441E"/>
<path fill-rule="evenodd" clip-rule="evenodd" d="M91.3053 74.36C91.3053 74.36 103.065 74.2333 109.526 74.369C109.818 74.3751 110.062 74.5912 110.104 74.8803C110.146 75.1694 109.973 75.4463 109.695 75.5354L93.585 80.6927C92.1729 78.9957 91.3053 74.36 91.3053 74.36Z" fill="#711801"/>
<path fill-rule="evenodd" clip-rule="evenodd" d="M307.318 80.1888C307.55 80.405 296.297 95.4226 275.531 87.4186C271.746 85.96 254.269 73.3752 266.485 49.9987C269.752 43.7485 283.923 25.3396 315.476 36.6822C319.236 38.0336 325.987 41.0772 338.028 49.9987C342.509 53.3195 377.067 83.6093 396.692 91.4161C400.599 92.9717 401.245 93.434 404.727 95.1026C405.71 95.5744 406.657 97.3895 402.9 98.193C402.9 98.193 406.61 98.0081 405.033 100.757C405.033 100.757 402.632 104.049 401.156 106.074C400.388 107.128 399.145 107.736 397.842 107.697C396.708 107.662 395.441 107.509 394.84 107.018C394.84 107.018 392.233 110.806 386.573 107.867C386.573 107.867 384.164 113.623 372.929 107.018C368.233 104.258 364.523 102.526 360.791 101.088V107.018L460.355 149.445C460.355 149.445 463.895 148.629 469.468 149.445L437.23 179.742L358.036 159.235V173.888C358.036 173.888 364.66 176.015 365.439 179.742H313.234V155.568C313.234 155.568 263.536 160.182 272.693 120.49C273.565 116.711 285.708 89.0955 313.234 83.1303L307.318 80.1888Z" fill="url(#paint2_linear)"/>
<path fill-rule="evenodd" clip-rule="evenodd" d="M361.681 135.642V135.641L418.499 156.74L430.363 136.886L432.433 137.768L420.217 158.205C420.214 158.317 420.189 158.43 420.15 158.541C420.058 158.788 419.888 158.983 419.68 159.109L411.235 173.236L408.987 172.654L417.334 158.685L361.547 137.968V137.968L361.614 136.817L361.681 135.642ZM271.804 126.064C272.611 129.356 274.72 132.397 278.246 133.053C282.546 133.853 287.39 131.187 290.93 129.037C295.528 126.243 298.859 122.472 301.975 118.496C305.201 114.379 308.195 110.043 312.019 106.258C313.846 104.45 316.344 102.515 319.007 101.664C320.931 101.05 322.937 100.986 324.875 101.832C327.36 102.917 329.376 105.155 330.891 107.844C333.061 111.699 334.203 116.465 334.387 119.698C335.239 134.86 334.86 148.805 334.565 163.902L358.063 163.969V166.197L313.261 166.069V163.841L332.337 163.895C332.629 148.843 333.013 134.94 332.161 119.824C331.994 116.854 330.941 112.478 328.95 108.937C327.688 106.695 326.056 104.779 323.984 103.874C322.187 103.089 320.31 103.426 318.575 104.218C316.67 105.088 314.929 106.512 313.587 107.842C309.83 111.559 306.897 115.826 303.73 119.87C300.449 124.054 296.923 128.001 292.085 130.941C288.128 133.346 282.649 136.138 277.836 135.243C275.14 134.741 273.06 133.149 271.617 131.051C271.556 129.487 271.614 127.827 271.804 126.064ZM360.818 107.25L362.862 108.122L361.57 137.435L360.186 160.017L358.063 159.467V162.3C357.918 162.098 357.84 161.847 357.857 161.58C357.857 161.58 360.782 117.376 360.79 104.593L360.793 104.504C360.801 104.384 360.809 104.266 360.818 104.149V107.25ZM310.13 81.8068C310.958 81.6491 312.303 81.4046 314.021 81.1339L306.212 74.4077C305.747 74.0066 305.694 73.3025 306.095 72.8366C306.496 72.3706 307.2 72.3183 307.666 72.7193L316.584 80.3994C316.692 80.4919 316.776 80.6005 316.84 80.7183C321.132 80.1287 326.752 79.5519 332.417 79.533C340.408 79.5062 348.463 80.6362 353.181 84.2321C355.554 86.0411 362.862 91.7331 363.088 102.234C362.327 101.913 361.573 101.611 360.818 101.32V101.374C360.219 92.4464 353.908 87.5893 351.83 86.0038C347.429 82.6487 339.879 81.7363 332.423 81.7611C323.302 81.7917 314.292 83.2977 310.986 83.9129C311.732 83.7135 312.49 83.5294 313.261 83.3623L310.13 81.8068ZM361.547 137.968L361.57 137.435L361.681 135.642L361.614 136.817L361.547 137.968Z" fill="#FD9500"/>
<path fill-rule="evenodd" clip-rule="evenodd" d="M385.105 109.408L379.376 105.618C378.86 105.28 378.721 104.588 379.061 104.075C379.398 103.562 380.091 103.421 380.604 103.76L387.422 108.269C387.146 108.151 386.862 108.017 386.57 107.866C386.57 107.866 386.208 108.733 385.105 109.408ZM393.21 108.36L384.982 102.734C384.472 102.387 384.344 101.693 384.69 101.186C385.038 100.678 385.731 100.547 386.238 100.895L395.844 107.463C395.435 107.36 395.078 107.216 394.836 107.017C394.836 107.017 394.307 107.784 393.21 108.36ZM405.4 99.3407C403.492 98.8892 402.281 98.924 401.52 99.1507C401.353 99.2009 401.211 99.2674 401.103 99.3318L401.793 99.9802C402.242 100.401 402.267 101.106 401.846 101.555C401.426 102.004 400.718 102.026 400.27 101.606L395.797 97.4117C395.349 96.9914 395.323 96.2856 395.744 95.8369C396.165 95.3885 396.872 95.3657 397.32 95.786L399.429 97.762C400.214 97.0766 401.891 96.3469 405.339 97.0465C404.985 97.486 404.242 97.9038 402.896 98.1918C402.896 98.1918 405.161 98.079 405.4 99.3407Z" fill="#FD9500"/>
<path fill-rule="evenodd" clip-rule="evenodd" d="M307.477 80.2682L307.318 80.1888C307.55 80.405 296.298 95.4226 275.531 87.4186C271.746 85.96 254.269 73.3752 266.485 49.9987C269.752 43.7485 283.923 25.3396 315.476 36.6822C318.389 37.7289 323.094 39.7899 330.658 44.8096C331.613 48.6638 331.483 55.2198 321.409 58.6686C321.409 58.6686 326.831 72.4887 310.583 74.675C310.583 74.675 309.613 77.2775 307.477 80.2682Z" fill="#FD9500"/>
<path fill-rule="evenodd" clip-rule="evenodd" d="M304.719 155.662L313.086 122.301C313.172 121.955 313.504 121.731 313.857 121.782C314.211 121.832 314.467 122.141 314.453 122.497L313.178 155.602C312.963 155.621 309.532 155.917 304.719 155.662ZM307.268 80.2639C307.062 80.4879 306.847 80.6839 306.633 80.8413C306.633 80.8413 296.857 68.8422 291.899 62.758C291.69 62.5018 291.701 62.1308 291.927 61.8882C292.15 61.6453 292.52 61.6052 292.79 61.7938C297.912 65.2744 306.911 71.5427 310.309 74.8774C310.309 74.8774 308.953 78.4296 307.295 80.2338L307.273 80.2219C307.279 80.2272 307.276 80.2414 307.268 80.2639Z" fill="#D7441E"/>
<path fill-rule="evenodd" clip-rule="evenodd" d="M260.433 19.1498C260.221 19.2479 260.508 18.6889 260.516 18.456C260.533 18.0218 260.538 17.5873 260.55 17.1531C260.58 15.8923 260.53 14.6317 260.538 13.3709C260.558 10.7921 259.993 3.45705 263.012 2.19453C264.516 1.56564 264.919 4.35722 264.942 5.29165C265.028 8.90346 262.521 11.6611 262.003 15.0317C261.978 15.1993 262.12 14.7128 262.184 14.556C262.318 14.2318 262.446 13.9053 262.586 13.5831C262.981 12.6707 263.379 11.7605 263.791 10.8556C265.092 7.99799 266.357 4.92678 268.284 2.41929C268.741 1.82299 270.08 0.214552 271.002 0.917808C272.373 1.96448 270.512 4.92734 269.905 5.92833C268.571 8.12305 266.844 10.0476 265.404 12.1682C263.942 14.3164 262.764 16.7042 261.271 18.8123" fill="#FFB000"/>
<path d="M271.79 35.503C278.413 35.503 283.783 30.1337 283.783 23.5103C283.783 16.887 278.413 11.5177 271.79 11.5177C265.167 11.5177 259.797 16.887 259.797 23.5103C259.797 30.1337 265.167 35.503 271.79 35.503Z" fill="#FFB000"/>
<path d="M245.924 30.5836C254.369 30.5836 261.215 23.7373 261.215 15.2918C261.215 6.84638 254.369 0 245.924 0C237.478 0 230.632 6.84638 230.632 15.2918C230.632 23.7373 237.478 30.5836 245.924 30.5836Z" fill="black"/>
<path fill-rule="evenodd" clip-rule="evenodd" d="M262.449 31.0283C260.789 28.9709 259.797 26.3557 259.797 23.5101C259.797 16.8914 265.17 11.5177 271.788 11.5177C273.531 11.5177 275.186 11.8898 276.681 12.5593C276.366 16.6535 274.138 24.6879 262.449 31.0283Z" fill="black"/>
<path fill-rule="evenodd" clip-rule="evenodd" d="M0.563461 397.034C-2.29412 395.046 5.99844 378.187 19.0704 359.412C32.1423 340.64 45.0752 327.012 47.9328 329.004C47.9476 329.012 47.9618 329.023 47.9757 329.034L62.1096 339.479C64.9675 341.467 56.6749 358.326 43.603 377.101C30.5311 395.873 17.5981 409.501 14.7403 407.509C14.7258 407.501 14.7116 407.49 14.6974 407.479L0.563461 397.034Z" fill="#FDEF76"/>
<path fill-rule="evenodd" clip-rule="evenodd" d="M46.1572 329.061L46.221 329.036L46.2842 329.014L46.3466 328.992L46.3511 328.989L46.4082 328.969H46.414L46.4689 328.95L46.4761 328.947L46.5288 328.93H46.5374L46.5878 328.914L46.5976 328.911L46.6463 328.9L46.6572 328.897L46.7037 328.883L46.7157 328.88L46.7605 328.872L46.7733 328.869L46.8162 328.858L46.8301 328.855L46.8714 328.847L46.8858 328.844L46.9254 328.838L46.941 328.836L46.9789 328.83H46.995L47.0312 328.824L47.0482 328.822L47.083 328.819H47.1003L47.1337 328.816L47.1518 328.813H47.1836H47.2022L47.2329 328.811H47.2518H47.2811L47.3003 328.813H47.3284H47.3479L47.3749 328.816L47.3947 328.819L47.4206 328.822L47.4407 328.824L47.4654 328.827L47.4855 328.83L47.5092 328.833L47.5295 328.838L47.5523 328.841L47.5727 328.847L47.5944 328.852L47.6147 328.858L47.6356 328.863L47.676 328.877L47.7153 328.891L47.754 328.905L47.7916 328.922L47.81 328.93L47.8284 328.941L47.8462 328.95L47.864 328.961L47.8815 328.972L47.8988 328.98L47.9161 328.992L47.9328 329.005L49.1619 329.913L49.1633 329.927C49.2736 331.03 49.0371 332.612 48.4397 334.579C47.9269 336.269 47.146 338.272 46.1269 340.528L59.8127 349.936C59.5107 350.591 59.1871 351.27 58.842 351.972L45.1696 342.572C44.8686 343.196 44.5519 343.837 44.2199 344.491L57.5163 354.579C57.1765 355.228 56.8219 355.891 56.4524 356.57L43.1788 346.496C40.9256 350.749 38.1084 355.523 34.8531 360.548L47.6378 371.14C47.2309 371.758 46.8182 372.382 46.399 373.008L33.6251 362.425C32.5712 364.018 31.4747 365.633 30.3405 367.263C26.5232 372.744 22.6947 377.777 19.1043 382.105L32.032 392.432L32.0462 392.443C31.5663 393.028 31.0911 393.599 30.6213 394.156L17.695 383.832C17.687 383.826 17.6789 383.818 17.6711 383.812C16.8951 384.723 16.1325 385.597 15.3861 386.433L28.0804 397.047C28.0898 397.056 28.099 397.061 28.1079 397.069C27.6013 397.643 27.1036 398.195 26.6159 398.727L13.8874 388.084C10.8786 391.343 8.17531 393.903 5.96834 395.577C4.33066 396.822 2.92889 397.59 1.85492 397.872C1.81398 397.883 1.77332 397.891 1.73293 397.902L0.563443 397.036L0.547009 397.025L0.530575 397.014L0.514421 397L0.498548 396.989L0.482951 396.975L0.46763 396.961L0.45259 396.947L0.43755 396.933L0.408588 396.902L0.380734 396.872L0.353994 396.841L0.327815 396.808L0.315282 396.788L0.303026 396.771L0.290774 396.755L0.279074 396.735L0.267098 396.716L0.256235 396.699L0.24454 396.68L0.234234 396.66L0.222815 396.638L0.213346 396.621L0.202203 396.596L0.193571 396.579L0.182428 396.554L0.17463 396.537L0.164048 396.51L0.156526 396.493L0.146224 396.465L0.139815 396.448L0.12979 396.418L0.123662 396.401L0.114193 396.37L0.108622 396.354L0.0994334 396.32L0.0946948 396.304L0.0860634 396.27L0.0816053 396.253L0.0732501 396.217L0.0696293 396.203L0.0618308 396.164L0.0584905 396.15L0.0512487 396.111L0.0484609 396.095L0.0414996 396.056L0.0392727 396.039L0.032864 395.997L0.0311938 395.983L0.025346 395.939L0.0239521 395.928L0.018661 395.877L0.0175476 395.866L0.0130895 395.816L0.0122565 395.808L0.00863566 395.755L0.00779844 395.746L0.0050148 395.691L0.00445808 395.682L0.00223116 395.624L0.00195067 395.618L0.000556728 395.56V395.554L0 395.487L0.000280489 395.421L0.00167018 395.351C0.0395485 393.872 0.460668 393.853 0.451477 394.727C0.448692 395 0.467632 395.242 0.518879 395.446C0.55063 395.574 0.574301 395.688 0.658971 395.746C0.74364 395.805 0.858114 395.788 0.989017 395.774C1.19902 395.749 1.43158 395.685 1.68754 395.588C2.50276 395.276 3.48732 394.663 4.62172 393.802C10.3472 389.458 19.4475 379.008 28.5118 365.99C37.5764 352.972 44.2199 340.809 46.3076 333.932C46.7215 332.57 46.9535 331.434 46.9627 330.562C46.9655 330.289 46.9466 330.047 46.8953 329.841C46.8636 329.713 46.8399 329.602 46.7552 329.543C46.6706 329.482 46.5561 329.501 46.4252 329.515C46.2149 329.537 45.9826 329.604 45.7267 329.702C44.9114 330.014 44.7842 329.61 46.1572 329.061Z" fill="#FFD600"/>
<path fill-rule="evenodd" clip-rule="evenodd" d="M403.222 374.052C401.161 373.707 399.588 371.913 399.588 369.755V361.037C399.588 358.631 401.54 356.676 403.946 356.676H466.242C468.649 356.676 470.604 358.631 470.604 361.037V369.755C470.604 371.913 469.03 373.707 466.969 374.052C469.03 374.401 470.604 376.194 470.604 378.353V387.07C470.604 389.101 469.211 390.811 467.328 391.293C469.164 391.808 470.509 393.493 470.509 395.49V404.21C470.509 406.614 468.557 408.569 466.15 408.569H403.854C401.448 408.569 399.496 406.614 399.496 404.21V395.49C399.496 393.46 400.885 391.752 402.768 391.268C400.933 390.752 399.588 389.067 399.588 387.07V378.353C399.588 376.194 401.161 374.401 403.222 374.052Z" fill="#FDEF76"/>
<path fill-rule="evenodd" clip-rule="evenodd" d="M460.427 371.911H469.861C469.223 373.028 468.109 373.832 466.797 374.052C466.931 374.075 467.064 374.105 467.195 374.139H465.825V389.084H469.939C469.373 390.165 468.365 390.983 467.156 391.293C467.178 391.298 467.198 391.304 467.217 391.312H459.951V408.569H457.723V391.312H436.575V408.569H434.347V391.312H416.318V408.569H414.09V391.312H411.82V408.569H409.592V391.312H402.44C402.493 391.295 402.543 391.282 402.596 391.268C401.429 390.939 400.457 390.14 399.908 389.084H404.401V374.139H402.652C402.78 374.105 402.913 374.075 403.05 374.052C401.738 373.832 400.624 373.028 399.986 371.911H412.157V356.676H414.386V371.911H419.154V356.676H421.382V371.911H432.598V356.676H434.826V371.911H458.199V356.676H460.427V371.911ZM406.629 374.139V389.084H426.688V374.139H406.629ZM428.916 374.139V389.084H441.705V374.139H428.916ZM443.933 374.139V389.084H447.231V374.139H443.933ZM449.459 374.139V389.084H463.597V374.139H449.459Z" fill="#FFD600"/>
<path fill-rule="evenodd" clip-rule="evenodd" d="M480.365 333.398C492.197 329.429 507.905 339.339 516.414 356.61C525.065 374.17 523.148 392.992 512.325 399.674L512.378 399.785L500.87 405.762C500.53 405.963 500.182 406.152 499.825 406.328C499.675 406.4 499.522 406.473 499.371 406.542L498.909 406.782L498.892 406.751C486.955 411.723 470.542 401.741 461.772 383.941C452.773 365.673 455.21 346.043 467.211 340.13C467.211 340.13 477.602 334.599 478.36 334.225C478.948 333.936 479.547 333.685 480.156 333.471L480.351 333.37L480.365 333.398Z" fill="#FDEF76"/>
<path d="M508.686 394.423C518.642 389.938 521.152 373.956 514.292 358.725C507.432 343.495 493.799 334.784 483.843 339.268C473.886 343.753 471.376 359.735 478.237 374.966C485.097 390.196 498.73 398.908 508.686 394.423Z" fill="#FFD600"/>
<path fill-rule="evenodd" clip-rule="evenodd" d="M485.616 332.53L485.786 332.527C484.187 332.844 482.63 333.362 481.14 334.098C476.096 336.582 472.562 341.15 470.662 346.831C467.746 355.557 468.665 366.876 473.921 377.544C479.176 388.214 487.59 395.842 496.288 398.844C501.948 400.8 507.724 400.783 512.768 398.299C514.261 397.561 515.62 396.644 516.846 395.569L516.804 395.619L516.765 395.672L516.726 395.722L516.659 395.806L516.623 395.853L516.576 395.909L516.542 395.951L516.534 395.962L516.47 396.037L516.434 396.082L516.378 396.148L516.358 396.174L516.336 396.196L516.278 396.268L516.244 396.307L516.169 396.394L516.141 396.424L516.08 396.494L516.049 396.53L515.971 396.616L515.943 396.647L515.879 396.717L515.852 396.747L515.771 396.836L515.743 396.867L515.673 396.939L515.651 396.962L515.567 397.051L515.54 397.079L515.459 397.162L515.45 397.173L515.442 397.179L515.359 397.263L515.331 397.29L515.244 397.38L515.225 397.396L515.147 397.471L515.122 397.496L515.033 397.583L515.01 397.605L514.93 397.677L514.91 397.7L514.815 397.786L514.793 397.806L514.71 397.884L514.693 397.898L514.598 397.981L514.573 398.003L514.478 398.09L514.473 398.092L514.375 398.176L514.35 398.198L514.253 398.282L514.239 398.293L514.15 398.368L514.125 398.385L514.027 398.468L514.005 398.482L513.919 398.555L513.899 398.572L513.796 398.65L513.774 398.669L513.679 398.741L513.668 398.75L513.562 398.831L513.54 398.847L513.434 398.925L513.325 399.003L513.3 399.023L513.194 399.098L513.183 399.106L513.086 399.176L513.061 399.193L512.955 399.265L512.935 399.279L512.838 399.343L512.818 399.357L512.71 399.429L512.688 399.446L512.587 399.51L512.573 399.518L512.462 399.588L512.437 399.605L512.325 399.674L512.378 399.786L507.73 402.201C505.839 402.499 503.898 402.549 501.937 402.362C501.928 402.368 501.917 402.373 501.906 402.379L491.726 408.016C490.493 407.974 489.239 407.816 487.977 407.545L498.397 401.775C497.45 401.552 496.503 401.276 495.559 400.95C492.272 399.814 489.019 398.059 485.942 395.756L476.297 401.95C475.678 401.488 475.063 401 474.453 400.488L484.098 394.294C483.382 393.692 482.677 393.06 481.987 392.4L472.108 398.36C471.567 397.833 471.033 397.288 470.509 396.725L480.371 390.77C477.121 387.328 474.23 383.211 471.924 378.529C471.378 377.421 470.877 376.307 470.42 375.187L460.184 380.423C459.9 379.727 459.63 379.031 459.377 378.335L469.618 373.096C468.052 368.723 467.153 364.328 466.888 360.108L456.419 364.492C456.369 363.69 456.344 362.896 456.341 362.111L466.805 357.727C466.78 354.31 467.181 351.034 467.986 348.012L457.628 352.471C457.92 351.477 458.263 350.519 458.655 349.603L468.646 345.302L468.749 345.545C469.98 342.099 471.779 339.052 474.11 336.582C474.11 336.582 477.349 334.744 478.266 334.273L478.36 334.226C478.948 333.936 479.547 333.685 480.157 333.471L480.352 333.371L480.366 333.399L480.491 333.357L480.51 333.351L480.633 333.312L480.655 333.304L480.778 333.268L480.792 333.262L480.912 333.226L480.928 333.22L481.051 333.187L481.073 333.179L481.196 333.145L481.215 333.14L481.338 333.106L481.346 333.103L481.471 333.07L481.494 333.064L481.619 333.034L481.638 333.028L481.767 332.998H481.769L481.9 332.967L481.917 332.961L482.042 332.933L482.065 332.931L482.193 332.903L482.204 332.9L482.332 332.872H482.34L482.471 332.844L482.491 332.842L482.622 332.816L482.636 332.814L482.769 332.789L482.906 332.766L482.92 332.764L483.053 332.744L483.067 332.741L483.204 332.719L483.343 332.7H483.351L483.485 332.68L483.502 332.677L483.635 332.661H483.647L483.783 332.644H483.786L483.922 332.63L483.939 332.627L484.07 332.613L484.089 332.61L484.226 332.599L484.357 332.588L484.379 332.585L484.507 332.577L484.535 332.574L484.66 332.566L484.685 332.563L484.766 332.56L484.886 332.552L484.931 332.549L485.075 332.544H485.092L485.262 332.535L485.435 332.532H485.437L485.607 332.53H485.616Z" fill="#FFD600"/>
<defs>
<linearGradient id="paint0_linear" x1="165.801" y1="196.077" x2="115.56" y2="50.3918" gradientUnits="userSpaceOnUse">
<stop stop-color="#E86135"/>
<stop offset="0.59" stop-color="#EC6D47"/>
<stop offset="0.8" stop-color="#F6886F"/>
<stop offset="1" stop-color="#FFA396"/>
</linearGradient>
<linearGradient id="paint1_linear" x1="90.8704" y1="61.5111" x2="-7.02207" y2="-3.97881" gradientUnits="userSpaceOnUse">
<stop stop-color="#E86135"/>
<stop offset="1" stop-color="#FFA396"/>
</linearGradient>
<linearGradient id="paint2_linear" x1="365.84" y1="106.404" x2="387.963" y2="228.188" gradientUnits="userSpaceOnUse">
<stop stop-color="#FFB000"/>
<stop offset="1" stop-color="#FD9500"/>
</linearGradient>
</defs>
</svg>
