<svg width="74" height="13" viewBox="0 0 74 13" fill="none" xmlns="http://www.w3.org/2000/svg">
<path d="M33.0005 2.69984C35.6121 2.69995 38.1239 3.70936 40.0167 5.51942C40.1592 5.65916 40.387 5.6574 40.5274 5.51547L41.8899 4.13235C41.961 4.06036 42.0006 3.96285 42 3.86139C41.9994 3.75994 41.9586 3.6629 41.8867 3.59175C36.9188 -1.19725 29.0814 -1.19725 24.1135 3.59175C24.0415 3.66284 24.0007 3.75985 24 3.86131C23.9993 3.96277 24.0389 4.06031 24.1099 4.13235L25.4728 5.51547C25.6131 5.65762 25.8411 5.65938 25.9835 5.51942C27.8765 3.70924 30.3886 2.69983 33.0005 2.69984ZM33.0005 7.19971C34.4354 7.19962 35.8191 7.73611 36.8828 8.70494C37.0267 8.84243 37.2533 8.83945 37.3935 8.69822L38.7544 7.3151C38.8261 7.24255 38.8658 7.14413 38.8648 7.04186C38.8638 6.9396 38.822 6.84201 38.7489 6.77094C35.5099 3.74028 30.4938 3.74028 27.2548 6.77094C27.1817 6.84201 27.1399 6.93964 27.139 7.04195C27.138 7.14425 27.1779 7.24266 27.2497 7.3151L28.6102 8.69822C28.7505 8.83945 28.9771 8.84243 29.1209 8.70494C30.1839 7.73675 31.5665 7.20031 33.0005 7.19971ZM35.6158 10.5006C35.6886 10.4288 35.7287 10.3299 35.7266 10.2273C35.7245 10.1248 35.6804 10.0276 35.6048 9.95883C34.1014 8.67978 31.8996 8.67978 30.3962 9.95883C30.3205 10.0276 30.2764 10.1247 30.2742 10.2272C30.272 10.3298 30.3121 10.4287 30.3848 10.5006L32.7392 12.8902C32.8082 12.9605 32.9023 13 33.0005 13C33.0987 13 33.1927 12.9605 33.2617 12.8902L35.6158 10.5006Z" fill="black"/>
<path d="M48.9231 3.20515C48.9231 2.49709 49.4971 1.9231 50.2051 1.9231H67.8334C68.5414 1.9231 69.1154 2.49709 69.1154 3.20515V9.29489C69.1154 10.0029 68.5414 10.5769 67.8334 10.5769H50.2051C49.4971 10.5769 48.9231 10.0029 48.9231 9.29489V3.20515Z" fill="black"/>
<path opacity="0.4" fill-rule="evenodd" clip-rule="evenodd" d="M50.2051 0.961538H67.8333C69.0724 0.961538 70.0769 1.96603 70.0769 3.20513V9.29487C70.0769 10.534 69.0724 11.5385 67.8333 11.5385H50.2051C48.966 11.5385 47.9615 10.534 47.9615 9.29487V3.20513C47.9615 1.96603 48.966 0.961538 50.2051 0.961538ZM47 3.20513C47 1.43498 48.435 0 50.2051 0H67.8333C69.6035 0 71.0385 1.43499 71.0385 3.20513V9.29487C71.0385 11.065 69.6035 12.5 67.8333 12.5H50.2051C48.435 12.5 47 11.065 47 9.29487V3.20513ZM73.6026 6.25C73.6026 7.23512 72.9188 8.06055 72 8.27759V4.22241C72.9188 4.43945 73.6026 5.26488 73.6026 6.25Z" fill="black"/>
<path fill-rule="evenodd" clip-rule="evenodd" d="M15.85 1C15.2977 1 14.85 1.44771 14.85 2V11C14.85 11.5523 15.2977 12 15.85 12H17.15C17.7022 12 18.15 11.5523 18.15 11V2C18.15 1.44772 17.7022 1 17.15 1H15.85ZM9.90004 4.19991C9.90004 3.64763 10.3478 3.19991 10.9 3.19991H12.2C12.7523 3.19991 13.2 3.64763 13.2 4.19991V10.9999C13.2 11.5522 12.7523 11.9999 12.2 11.9999H10.9C10.3478 11.9999 9.90004 11.5522 9.90004 10.9999V4.19991ZM5.94991 5.40004C5.39763 5.40004 4.94991 5.84776 4.94991 6.40004V11C4.94991 11.5523 5.39762 12 5.94991 12H7.24991C7.8022 12 8.24991 11.5523 8.24991 11V6.40004C8.24991 5.84776 7.8022 5.40004 7.24991 5.40004H5.94991ZM1.1 12C0.492487 12 0 11.5075 0 10.9V8.15C0 7.54249 0.492487 7.05 1.1 7.05H2.2C2.80751 7.05 3.3 7.54249 3.3 8.15V10.9C3.3 11.5075 2.80751 12 2.2 12H1.1Z" fill="black"/>
</svg>
