<svg xmlns="http://www.w3.org/2000/svg" xmlns:xlink="http://www.w3.org/1999/xlink" viewBox="0 0 907.02 230.81"><defs><style>.cls-1{fill:none;}.cls-2{isolation:isolate;}.cls-3{fill:#52b69a;}.cls-4{fill:#fcec20;}.cls-5{fill:#fdbd19;}.cls-6{opacity:0.4;mix-blend-mode:hard-light;}.cls-7{clip-path:url(#clip-path);}.cls-8{fill:#fff;}</style><clipPath id="clip-path" transform="translate(0 0)"><rect id="SVGID" class="cls-1" x="2.96" width="225.42" height="115.4"/></clipPath></defs><g class="cls-2"><g id="Layer_2" data-name="Layer 2"><g id="Light_Profile_Screen" data-name="Light Profile Screen"><g id="Top_Bar" data-name="Top Bar"><path class="cls-3" d="M318.84,200c-21.2,0-39.45-12.59-39.45-39.87V43h14.06c17.42,0,25.81,8,25.81,27.49v83.72c0,10.28,5.66,13.43,16.78,13.43h8.81v13.85C344.85,195.57,331.43,200,318.84,200Z" transform="translate(0 0)"/><path class="cls-3" d="M414.11,201.65c-37.35,0-57.71-18.25-57.71-55.19V82.89h15.53c17.42,0,25,5.87,25,23.5v41.13c0,17,8,22.24,18.88,22.24,9.45,0,17-5.46,17-23.71V82.89H448.3c15.95,0,24.76,6.71,24.76,23.5v41.13C473.06,184.45,449.56,201.65,414.11,201.65Z" transform="translate(0 0)"/><path class="cls-3" d="M536.45,66.31V132c9.44-14.06,19.09-29.17,30.42-41.34,5-5.45,9-7.76,21.19-7.76H616v1c-7.14,7.34-32.53,36.93-43,52,6.72,10.08,13.64,21.2,21.61,30.43,8.61,9.86,12,10.91,20.78,13-1.47,12.8-10.07,19.93-24.34,19.93-5.88,0-15.74-2.31-20.57-8-13-15.11-23.08-31.48-34-48.05v55H520.71c-14.69,0-24.13-9.65-24.13-23.5V43h15.31C529.94,43,536.45,54.77,536.45,66.31Z" transform="translate(0 0)"/><path class="cls-3" d="M698,112.68a36.17,36.17,0,0,0-14.06-2.3c-9.65,0-17.2,4.82-17.2,18.88v69H655.84c-17.2,0-27.69-8-27.69-27.27V120.87c0-23.29,15.73-41.76,42-41.76,19.93,0,29.17,8.19,29.17,18.89v14.68Z" transform="translate(0 0)"/><path class="cls-3" d="M732.23,76.38c-11.54,0-21-8.81-21-19.72s9.44-19.72,21-19.72S753,45.75,753,56.66,743.77,76.38,732.23,76.38ZM751.11,200c-21.19,0-37.77-10.49-37.77-37.77V86.46h9.87c22.66,0,30,6.5,30,27.48v42.39c0,10.28,4.83,13.43,15.95,13.43H774v11.75C774,195.35,763.49,200,751.11,200Z" transform="translate(0 0)"/><path class="cls-3" d="M847.22,79.74c31.47,0,59.8,23.92,59.8,59.59,0,37.77-22.87,62.11-62.74,62.11-32.94,0-59.8-24.34-59.8-58.33C784.48,104.92,810.92,79.74,847.22,79.74Zm-2.52,31.48c-10.91,0-20.77,11.54-20.77,27.27,0,22.24,8.81,31.9,22.87,31.9,12.59,0,20.77-11.55,20.77-27.49C867.57,122.13,858.55,111.22,844.7,111.22Z" transform="translate(0 0)"/><polygon class="cls-4" points="158.22 115.4 153.71 115.4 155.59 113.25 158.22 115.4"/><path class="cls-4" d="M228.25,91.12c-.1-.44-.19-.87-.29-1.31a3.89,3.89,0,0,0-.12-.49c-.1-.49-.22-1-.34-1.44s-.28-1.18-.44-1.76c-.09-.33-.17-.66-.26-1-.16-.59-.32-1.17-.49-1.74s-.26-.88-.39-1.32c0-.17-.1-.35-.16-.52-.16-.52-.32-1-.49-1.57-.08-.27-.17-.54-.26-.8-.41-1.24-.83-2.47-1.29-3.69-.51-1.37-1-2.74-1.6-4.09-.28-.68-.56-1.35-.85-2-.54-1.24-1.1-2.46-1.68-3.67-.13-.28-.26-.56-.4-.84l-.69-1.39,0-.06c-.28-.58-.58-1.14-.87-1.71s-.75-1.42-1.15-2.12a115.91,115.91,0,0,0-43.86-44.46q-4.91-2.81-10.1-5.13A115.5,115.5,0,0,0,3,89.34L26.08,115.4a89.33,89.33,0,0,1,178.65,0l23.65-23.64c0-.22-.09-.44-.13-.64" transform="translate(0 0)"/><path class="cls-4" d="M230.81,115.4A115.41,115.41,0,0,1,21.47,182.46a112.51,112.51,0,0,1-6.12-9.52A115.84,115.84,0,0,1,3,89.34L26.08,115.4a89.33,89.33,0,1,0,178.65,0l23.65-23.64h0c.06.27.12.54.17.82s.07.37.11.56c.37,1.92.71,3.85,1,5.8.07.49.14,1,.2,1.47a.5.5,0,0,1,0,.12l.21,1.78c.06.5.11,1,.16,1.51s.11,1.1.15,1.64c0,.33.06.67.08,1s0,.4,0,.59c0,.36.05.72.07,1.08.06,1,.11,1.93.14,2.89,0,.49,0,1,.05,1.46s0,.82,0,1.22c0,.57,0,1.14,0,1.7" transform="translate(0 0)"/><polygon class="cls-5" points="158.22 115.4 153.71 115.4 155.59 113.25 158.22 115.4"/><path class="cls-5" d="M115.4,26.08a89.33,89.33,0,1,0,89.33,89.32A89.32,89.32,0,0,0,115.4,26.08M121,200.16A81.17,81.17,0,0,1,39.77,119c0-1.2,0-2.4.08-3.59a81.17,81.17,0,0,1,162.19,0c.05,1.19.08,2.39.08,3.59A81.17,81.17,0,0,1,121,200.16" transform="translate(0 0)"/><path class="cls-4" d="M202,115.4a81.17,81.17,0,0,0-162.19,0c-.05,1.19-.08,2.39-.08,3.59a81.18,81.18,0,0,0,162.35,0c0-1.2,0-2.4-.08-3.59m-26.1-30.76-7,30.76-.25,1.09a4,4,0,0,1-6.45,2.22l-4-3.31-2.63-2.15-1.88,2.15-20.42,23.46a5.21,5.21,0,0,1-.52.53,6.65,6.65,0,0,1-.88,1.26,7.23,7.23,0,0,1-10.19.71L98.56,121.21,78.2,144.61a7.22,7.22,0,0,1-10.9-9.48L84.47,115.4l7-8a7.22,7.22,0,0,1,5-2.46,7.21,7.21,0,0,1,7,1.39l10.44,9.08,11.76,10.23,8.9-10.23,9.85-11.31L137,98a4,4,0,0,1,1.23-6.9L170.73,80a4,4,0,0,1,5.21,4.68" transform="translate(0 0)"/><path class="cls-5" d="M175.94,84.64l-7,30.76-.25,1.09a4,4,0,0,1-6.45,2.22l-4-3.31-2.63-2.15-1.88,2.15-20.42,23.46a5.21,5.21,0,0,1-.52.53,6.65,6.65,0,0,1-.88,1.26,7.23,7.23,0,0,1-10.19.71L98.56,121.21,78.2,144.61a7.22,7.22,0,0,1-10.9-9.48L84.47,115.4l7-8a7.22,7.22,0,0,1,5-2.46,7.21,7.21,0,0,1,7,1.39l10.44,9.08,11.76,10.23,8.9-10.23,9.85-11.31L137,98a4,4,0,0,1,1.23-6.9L170.73,80a4,4,0,0,1,5.21,4.68" transform="translate(0 0)"/><g class="cls-6"><g class="cls-7"><path class="cls-8" d="M228.38,91.76,204.73,115.4a89.33,89.33,0,0,0-178.65,0L3,89.34A115.5,115.5,0,0,1,162.48,10q5.21,2.33,10.1,5.13A115.91,115.91,0,0,1,216.44,59.6c.4.7.77,1.41,1.14,2.12s.6,1.13.88,1.71l0,.06.69,1.39c.14.28.27.56.4.84.58,1.21,1.14,2.43,1.68,3.67.29.67.57,1.34.85,2,.56,1.35,1.09,2.72,1.6,4.09q.67,1.83,1.29,3.69c.09.26.18.53.26.8.17.52.33,1.05.49,1.58.06.16.11.34.16.51.14.44.26.87.39,1.32s.33,1.15.49,1.74c.09.32.17.65.26,1,.15.58.3,1.17.44,1.76s.24,1,.34,1.44a3.89,3.89,0,0,1,.12.49c.1.44.19.87.29,1.31,0,.21.09.42.13.64" transform="translate(0 0)"/></g></g></g></g></g></g></svg>