<svg width="1038" height="741" viewBox="0 0 1038 741" fill="none" xmlns="http://www.w3.org/2000/svg">
<path fill-rule="evenodd" clip-rule="evenodd" d="M586.29 737.182V379.732H568.685V737.182H586.29ZM928.474 737.182V379.732H910.868V737.182H928.474Z" fill="#BABEC2"/>
<path fill-rule="evenodd" clip-rule="evenodd" d="M586.29 410.582L568.685 410.96V379.732H586.29V410.582ZM928.474 380.878V403.196L910.868 403.574V380.817L928.474 380.878Z" fill="black"/>
<path d="M1007.15 372.057H491.203V385.573H1007.15V372.057Z" fill="#BABEC2"/>
<path fill-rule="evenodd" clip-rule="evenodd" d="M498.513 372.437C504.858 345.737 526.968 326.007 553.236 326.007C579.505 326.007 601.615 345.737 607.96 372.437H498.513Z" fill="#B9D8D6"/>
<path fill-rule="evenodd" clip-rule="evenodd" d="M588.368 372.382C579.639 351.994 565.886 347.848 565.886 347.848C564.724 347.512 564.05 346.296 564.384 345.133C564.724 343.971 565.941 343.301 567.102 343.636C567.102 343.636 583.519 348.198 593.119 372.382H588.368Z" fill="#82B5B2"/>
<path fill-rule="evenodd" clip-rule="evenodd" d="M606.335 372.294C607.963 404.815 611.837 456.032 621.371 483.106C623.47 489.062 625.809 493.813 628.522 496.81C630.736 499.265 633.168 500.449 635.947 499.665C638.626 498.909 641.393 496.953 643.979 494.355C643.859 494.18 643.744 494.005 643.629 493.824C640.242 488.542 638.451 480.251 638.599 472.985C638.675 469.013 639.338 465.347 640.56 462.613C641.645 460.18 643.196 458.432 645.092 457.56C647.064 456.651 649.475 456.602 652.325 457.982C659.333 461.374 660.856 468.969 658.736 477.281C657.229 483.166 653.914 489.391 649.864 494.355C650.495 494.827 651.174 495.172 651.908 495.358C653.717 495.813 655.76 495.205 658.095 493.446C660.029 491.994 661.662 489.374 663.147 485.95C665.596 480.3 667.514 472.558 669.043 463.747C675.108 428.815 674.939 377.439 675.196 371.335C675.245 370.13 676.27 369.187 677.481 369.236C678.687 369.291 679.629 370.316 679.574 371.521C679.317 377.664 679.465 429.352 673.361 464.498C671.761 473.703 669.728 481.791 667.169 487.692C665.317 491.966 663.141 495.139 660.73 496.953C657.032 499.731 653.7 500.328 650.84 499.61C649.443 499.259 648.127 498.575 646.927 497.605C643.782 500.717 640.374 502.969 637.141 503.884C632.747 505.123 628.768 503.627 625.267 499.747C622.259 496.416 619.568 491.183 617.234 484.563C607.574 457.122 603.596 405.16 601.946 372.294H606.335ZM646.993 490.931C650.412 486.574 653.196 481.248 654.484 476.196C656.034 470.13 655.53 464.404 650.418 461.928C649.032 461.259 647.881 461.1 646.922 461.544C645.892 462.021 645.158 463.067 644.56 464.399C643.541 466.684 643.048 469.752 642.982 473.073C642.856 479.237 644.232 486.262 646.993 490.931ZM604.949 363.286C605.546 363.653 605.963 364.299 605.996 365.056L606.05 366.277C605.705 365.269 605.338 364.266 604.949 363.286Z" fill="#82B5B2"/>
<path d="M758.994 595.532C783.561 595.532 803.477 569.641 803.477 537.703C803.477 505.764 783.561 479.874 758.994 479.874C734.427 479.874 714.511 505.764 714.511 537.703C714.511 569.641 734.427 595.532 758.994 595.532Z" fill="white"/>
<path fill-rule="evenodd" clip-rule="evenodd" d="M759.297 473.66V483.682C735.701 484.142 717.226 508.51 717.226 537.891C717.226 567.266 735.701 591.634 759.297 592.094V602.122C730.792 601.672 707.201 573.321 707.201 537.891C707.201 502.455 730.792 474.104 759.297 473.66Z" fill="black"/>
<path fill-rule="evenodd" clip-rule="evenodd" d="M759.464 473.682L760.171 473.66C788.988 473.66 812.972 502.186 812.972 537.913C812.972 573.639 788.988 602.165 760.171 602.165L759.464 602.144V592.116L760.171 592.143C784.106 592.143 802.944 567.584 802.944 537.913C802.944 508.241 784.106 483.682 760.171 483.682L759.464 483.704V473.682Z" fill="black"/>
<path fill-rule="evenodd" clip-rule="evenodd" d="M760.385 536.403C762.905 536.403 764.955 538.447 764.955 540.973C764.955 543.493 762.905 545.543 760.385 545.543C757.858 545.543 755.809 543.493 755.809 540.973C755.809 538.447 757.858 536.403 760.385 536.403ZM768.237 530.408L783.623 500.616C784.177 499.542 783.755 498.216 782.681 497.663C781.601 497.109 780.281 497.531 779.727 498.605L764.341 528.397C763.782 529.471 764.204 530.797 765.283 531.351C766.357 531.904 767.678 531.482 768.237 530.408ZM747.837 505.882L753.689 528.973C753.984 530.145 755.174 530.852 756.352 530.556C757.524 530.26 758.231 529.066 757.935 527.893L752.089 504.808C751.793 503.63 750.598 502.923 749.426 503.219C748.253 503.515 747.541 504.71 747.837 505.882Z" fill="black"/>
<path d="M1035.07 507.202L974.731 476.221L933.955 555.637L994.293 586.618L1035.07 507.202Z" fill="#A8CFCC"/>
<path fill-rule="evenodd" clip-rule="evenodd" d="M992.737 576.238L1002.98 581.493C1004.06 582.046 1005.38 581.619 1005.94 580.545C1006.49 579.466 1006.06 578.145 1004.98 577.592L994.737 572.337C993.658 571.789 992.337 572.211 991.784 573.29C991.236 574.364 991.658 575.69 992.737 576.238ZM999.077 563.871L1009.33 569.12C1010.4 569.674 1011.73 569.246 1012.28 568.172C1012.83 567.098 1012.4 565.772 1011.33 565.224L1001.08 559.97C1000 559.416 998.682 559.843 998.129 560.917C997.576 561.991 998.003 563.317 999.077 563.871ZM1005.42 551.498L1015.67 556.753C1016.75 557.301 1018.07 556.879 1018.62 555.8C1019.18 554.726 1018.75 553.405 1017.67 552.852L1007.42 547.597C1006.34 547.043 1005.02 547.471 1004.47 548.545C1003.92 549.624 1004.35 550.945 1005.42 551.498ZM1011.77 539.126L1022.01 544.38C1023.09 544.934 1024.41 544.506 1024.96 543.427C1025.52 542.353 1025.09 541.032 1024.01 540.479L1013.76 535.224C1012.69 534.671 1011.37 535.098 1010.81 536.172C1010.26 537.252 1010.69 538.572 1011.77 539.126ZM1018.11 526.753L1028.36 532.008C1029.43 532.561 1030.75 532.134 1031.31 531.054C1031.86 529.98 1031.43 528.66 1030.36 528.106L1020.11 522.851C1019.03 522.298 1017.71 522.725 1017.16 523.799C1016.61 524.879 1017.03 526.199 1018.11 526.753ZM1024.28 514.714L1034.53 519.969C1035.6 520.523 1036.92 520.095 1037.48 519.021C1038.03 517.947 1037.6 516.621 1036.53 516.073L1026.28 510.818C1025.2 510.265 1023.88 510.692 1023.33 511.766C1022.78 512.84 1023.2 514.166 1024.28 514.714Z" fill="black"/>
<path fill-rule="evenodd" clip-rule="evenodd" d="M836.722 488.997L929.653 511.051L924.708 524.908L836.722 488.997Z" fill="white"/>
<path d="M931.699 520.685L834.756 486.089L790.761 609.371L887.704 643.966L931.699 520.685Z" fill="#F27F71"/>
<path fill-rule="evenodd" clip-rule="evenodd" d="M925.182 511.788L836.09 491.152C834.912 490.878 834.178 489.7 834.446 488.516C834.72 487.338 835.899 486.604 837.077 486.878L928.53 508.061C929.132 508.204 929.647 508.593 929.949 509.13C930.25 509.673 930.31 510.314 930.108 510.905L925.121 525.58C924.732 526.725 923.488 527.338 922.343 526.949C921.198 526.56 920.584 525.311 920.973 524.166L925.182 511.788Z" fill="#F27F71"/>
<path d="M1003.66 525.558H881.9V671.077H1003.66V525.558Z" fill="white"/>
<path fill-rule="evenodd" clip-rule="evenodd" d="M992.783 654.366H892.13V660.875H992.783V654.366ZM992.783 642.437H892.13V648.946H992.783V642.437ZM992.783 630.508H892.13V637.018H992.783V630.508ZM992.783 618.579H892.13V625.089H992.783V618.579ZM992.783 606.65H892.13V613.16H992.783V606.65ZM992.783 594.721H892.13V601.231H992.783V594.721ZM992.783 582.793H892.13V589.302H992.783V582.793ZM992.783 570.864H892.13V577.373H992.783V570.864ZM992.783 558.935H892.13V565.444H992.783V558.935ZM992.783 547.006H892.13V553.516H992.783V547.006ZM992.783 535.061H892.13V541.57H992.783V535.061Z" fill="black"/>
<path fill-rule="evenodd" clip-rule="evenodd" d="M884.091 668.884H943.203C944.409 668.884 945.395 669.865 945.395 671.076C945.395 672.287 944.409 673.268 943.203 673.268H881.899C880.688 673.268 879.707 672.287 879.707 671.076V525.557C879.707 524.346 880.688 523.365 881.899 523.365H940.108C941.313 523.365 942.299 524.346 942.299 525.557C942.299 526.768 941.313 527.749 940.108 527.749H884.091V668.884Z" fill="black"/>
<path fill-rule="evenodd" clip-rule="evenodd" d="M1001.36 527.749H940.01C938.799 527.749 937.818 526.768 937.818 525.557C937.818 524.346 938.799 523.365 940.01 523.365H1003.56C1004.77 523.365 1005.75 524.346 1005.75 525.557V671.076C1005.75 672.287 1004.77 673.268 1003.56 673.268H943.106C941.895 673.268 940.914 672.287 940.914 671.076C940.914 669.865 941.895 668.884 943.106 668.884H1001.36V527.749Z" fill="black"/>
<path d="M1025.31 544.932H699.892V739.398H1025.31V544.932Z" fill="#FFD798"/>
<path fill-rule="evenodd" clip-rule="evenodd" d="M899.271 544.932V631.935L889.013 623.864L879.402 631.935L869.649 623.864L860.334 631.935L851.769 623.864L842.794 631.935V544.932H899.271Z" fill="#F8BB61"/>
<path d="M191.046 127.719C216.425 127.719 236.998 107.146 236.998 81.768C236.998 56.3899 216.425 35.8169 191.046 35.8169C165.668 35.8169 145.095 56.3899 145.095 81.768C145.095 107.146 165.668 127.719 191.046 127.719Z" fill="#FFC3BB"/>
<path fill-rule="evenodd" clip-rule="evenodd" d="M165.848 120.191C153.351 111.973 145.095 97.8268 145.095 81.768C145.095 56.4072 165.686 35.8169 191.047 35.8169C196.765 35.8169 202.242 36.864 207.296 38.7775L183.285 85.9407C181.493 82.8995 178.106 80.8469 174.226 80.8469C168.478 80.8469 163.812 85.3516 163.812 90.9007C163.812 96.4492 168.478 100.955 174.226 100.955C174.724 100.955 175.214 100.921 175.692 100.855L165.848 120.191Z" fill="black"/>
<path fill-rule="evenodd" clip-rule="evenodd" d="M178.548 592.817C154.797 594.91 125.444 595.03 90.9441 590.608C67.5061 587.606 -10.7505 563.014 9.01573 460.761C12.9232 440.547 32.5907 390.59 116.188 386.245C140.586 384.974 311.079 365.357 379.381 440.64C380.718 442.119 382.444 444.092 384.384 446.64C407.578 457.166 474.642 493.506 472.083 560.937C472.083 560.937 466.784 636.466 368.767 669.025C361.523 685.25 353.019 702.565 343.085 721.004C343.085 721.004 365.419 726.977 371.079 739.53H198.742L209.058 706.878L198.339 709.409C198.237 720.763 187.612 732.094 178.548 740.27V592.817Z" fill="url(#paint0_linear)"/>
<path fill-rule="evenodd" clip-rule="evenodd" d="M201.378 708.881L210.906 588.245C211.002 587.039 212.057 586.141 213.263 586.234C214.47 586.327 215.371 587.384 215.276 588.59L205.86 707.824L201.378 708.881Z" fill="#F27F71"/>
<path fill-rule="evenodd" clip-rule="evenodd" d="M230.251 582.221L251.306 578.144C251.306 578.144 259.042 553.18 264.349 536.045C264.672 535.004 264.173 533.886 263.184 533.432C262.196 532.977 261.023 533.328 260.444 534.248C248.948 552.517 230.251 582.221 230.251 582.221Z" fill="#F27F71"/>
<path fill-rule="evenodd" clip-rule="evenodd" d="M178.394 592.814C173.097 593.279 220.937 583.909 248.809 575.531C250.552 575.005 252.548 574.709 252.548 574.709C252.548 574.709 251.765 577.537 251.512 578.309L217.926 681.138L363.994 679.154C363.309 680.617 362.618 682.086 361.917 683.565L216.839 685.538C216.722 685.538 216.608 685.527 216.496 685.51L208.904 706.875L204.572 707.9L246.055 580.901C224.149 587.257 202.004 592.792 178.394 596.244V592.814ZM368.69 668.995C433.907 530.479 383.013 445.037 384.23 446.637C385.906 447.398 387.819 448.297 389.923 449.333C403.408 475.58 428.729 549.01 374.46 666.99C372.58 667.675 370.651 668.343 368.69 668.995Z" fill="#F27F71"/>
<path fill-rule="evenodd" clip-rule="evenodd" d="M138.816 139.627C240.203 140.709 312.554 154.534 397.124 161.401C422.675 163.477 481.218 178.128 467.525 230.726C462.33 250.683 444.237 264.556 423.618 264.396C387.891 264.12 339.091 263.743 339.091 263.743C339.091 263.743 377.798 296.672 458.385 297.84C458.385 297.84 547.224 305.371 555.553 305.708C570.271 306.304 579.077 306.532 587.153 306.994C588.89 307.097 590.425 308.16 591.132 309.749C591.838 311.339 591.603 313.19 590.518 314.549C588.841 316.636 585.466 318.993 579.126 321.379C567.553 325.734 558.496 326.113 549.597 328.733C550.265 327.246 564.046 340.225 572.118 348.558C573.723 350.239 574.298 352.652 573.63 354.877C572.956 357.101 571.137 358.792 568.868 359.301C567.126 359.697 565.022 359.785 562.507 359.337C567.296 364.008 561.701 371.75 546.632 364.145C542.676 362.15 541.312 361.597 531.136 355.308C531.136 355.308 534.386 361.147 536.293 364.577C536.797 365.487 536.906 366.567 536.583 367.558C536.265 368.55 535.547 369.367 534.605 369.81C532.512 370.786 529.208 371.098 524.298 368.528C516.835 364.632 511.761 362.49 507.103 360.572C502.807 358.804 497.925 359.206 493.98 361.651C477.711 371.695 426.905 395.071 330.696 373.115C330.696 373.115 273.056 365.493 197.687 316.729C195.682 308.786 101.993 419.318 18.8857 326.104C-13.8482 289.388 -20.6193 137.926 138.816 139.627Z" fill="#FFC3BB"/>
<path fill-rule="evenodd" clip-rule="evenodd" d="M531.174 355.384C516.5 335.917 506.149 335.476 506.149 335.476C504.943 335.457 503.974 334.459 503.995 333.25C504.012 332.04 505.009 331.074 506.22 331.093C506.22 331.093 520.209 330.986 538.566 358.211C538.911 358.729 539.009 359.343 538.889 359.907C537.009 358.81 534.549 357.326 531.048 355.164L531.174 355.384ZM562.418 359.193C562.582 359.355 542.347 341.724 539.804 338.957C531.146 329.526 524.812 325.113 520.615 323.088C517.475 321.573 515.491 321.543 515.415 321.542C515.442 321.539 515.47 321.536 515.491 321.531L515.415 321.542C514.253 321.693 513.168 320.892 512.976 319.724C512.779 318.531 513.59 317.402 514.785 317.206C514.785 317.206 524.007 315.277 543.037 335.992C545.864 339.073 559.695 352.174 569.278 359.025C569.114 359.075 568.95 359.119 568.78 359.157C567.037 359.553 564.933 359.641 562.418 359.193ZM521.744 302.982C525.766 303.31 529.645 303.624 533.256 303.913C536.368 306.138 539.557 309.14 542.445 313.188C544.456 316.007 548.385 321.731 555.404 327.124C553.607 327.508 551.832 327.926 550.067 328.427C544.215 323.362 540.757 318.368 538.878 315.733C533.229 307.813 526.292 304.422 521.744 302.982Z" fill="#F27F71"/>
<path fill-rule="evenodd" clip-rule="evenodd" d="M312.089 369.071C289.187 363.038 247.333 348.758 197.831 316.729C196.923 310.014 100.746 422.638 19.0289 326.104C-13.2054 288.025 -20.4762 137.926 138.959 139.627C240.347 140.709 312.697 154.534 397.267 161.402C422.818 163.477 481.361 178.128 467.668 230.727C462.474 250.683 444.38 264.556 423.761 264.396C388.034 264.12 339.234 263.743 339.234 263.743C339.234 263.743 366.807 287.2 423.854 295.22L411.054 382.161C396.632 382.468 380.303 381.58 361.974 378.939C346.878 375.942 329.568 372.512 312.089 369.071Z" fill="url(#paint1_linear)"/>
<path fill-rule="evenodd" clip-rule="evenodd" d="M182.676 327.655C170.255 312.778 163.78 296.333 160.875 287.229C160.66 286.467 160.999 285.656 161.693 285.274C162.386 284.891 163.253 285.037 163.783 285.625C177.572 300.522 194.673 314.397 197.361 316.553C195.981 316.642 190.775 321.273 182.676 327.655ZM339.202 263.918L339.208 263.924L339.23 263.942L339.268 263.974L339.29 263.991L339.306 264.008L339.334 264.03L339.378 264.063L339.416 264.094L339.449 264.122L339.476 264.145L339.514 264.176L339.58 264.226L339.63 264.268L339.657 264.288L339.69 264.312L339.788 264.39L339.854 264.443L339.871 264.458L339.893 264.472L340.057 264.602L340.117 264.648L340.123 264.652C340.21 264.72 340.304 264.792 340.402 264.868L340.424 264.881L340.517 264.952L340.687 265.082L340.725 265.11C340.813 265.177 340.912 265.246 341.005 265.318L341.021 265.327L341.038 265.341C341.262 265.506 341.504 265.683 341.761 265.871L341.81 265.904L341.92 265.985L341.98 266.026L341.997 266.04L342.046 266.075L342.145 266.143L342.194 266.18L342.227 266.203L342.298 266.252L342.375 266.309L342.419 266.338L342.462 266.371L342.556 266.435L342.621 266.48L342.649 266.501L342.709 266.541L342.824 266.623L342.873 266.657L342.89 266.668L342.95 266.711L343.104 266.817L343.136 266.84C317.427 250.692 271.476 216.488 241.203 192.996C240.009 192.069 239.791 190.346 240.719 189.152C241.646 187.957 243.368 187.74 244.563 188.667C275.869 212.962 324.04 248.821 348.83 263.932L339.125 263.857L339.186 263.909L339.202 263.918ZM352.846 181.273L428.315 183.415C429.822 183.458 431.088 182.266 431.132 180.754C431.17 179.243 429.981 177.981 428.469 177.938L353 175.796C351.487 175.753 350.227 176.945 350.183 178.457C350.139 179.968 351.334 181.23 352.846 181.273Z" fill="#AC2310"/>
<path fill-rule="evenodd" clip-rule="evenodd" d="M276.661 189.305C265.627 164.019 213.805 142.537 213.805 142.537L234.821 144.235C258.192 154.855 275.443 173.316 282.228 181.363C284.815 181.71 291.252 182.691 291.357 183.878C291.489 185.364 292.386 210.315 292.386 210.315C292.304 210.356 292.222 210.396 292.141 210.435L292.866 210.482C305.812 234.443 301.101 268.406 319.58 288.819C325.433 295.282 333.087 301.356 341.46 304.137C351.186 307.368 361.285 307.22 371.378 306.627C374.047 306.47 380.529 305.998 383.789 305.757C385 305.669 386.167 306.209 386.885 307.188C389.68 311.002 396.83 320.769 400.31 325.516C401.439 327.055 401.285 329.185 399.948 330.546C395.154 335.427 384.293 346.485 380.6 350.239C379.8 351.054 378.655 351.428 377.526 351.241C375.389 350.913 371.986 350.36 370.71 349.992C363.285 347.847 355.964 345.333 348.825 342.374C328.397 333.911 306.799 320.572 297.904 299.483C292.708 287.165 291.922 274.017 291.979 260.829C292.028 249.202 293.388 236.968 290.961 225.491C290.017 221.028 287.92 216.847 285.851 212.817C285.803 212.724 285.612 212.413 285.37 212.008C275.629 211.659 271.128 199.22 271.128 199.22L276.661 189.305Z" fill="black"/>
<path fill-rule="evenodd" clip-rule="evenodd" d="M374.911 263.778L355.124 175.725C355.124 175.725 336.33 174.607 325.173 172.596C325.173 172.596 297.807 163.697 278.595 170.029C275.472 171.058 265.826 176.337 259.256 189.018C256.512 194.313 265.555 197.751 275.981 189.018C278.113 187.233 282.206 185.163 286.465 184.807C286.465 184.807 273.163 195.216 286.465 203.951C286.465 203.951 283.736 213.221 295.265 215.152C295.265 215.152 293.55 229.012 314.708 242.378C320.768 246.209 367.82 265.316 374.911 263.778Z" fill="#FFC3BB"/>
<path fill-rule="evenodd" clip-rule="evenodd" d="M291.444 214.107C293.202 209.036 297.071 206.006 300.803 204.234C305.119 202.183 309.205 201.858 309.205 201.858C310.411 201.759 311.468 202.657 311.567 203.862C311.666 205.068 310.767 206.128 309.561 206.227C309.561 206.227 306.245 206.565 302.684 208.193C297.131 210.733 295.199 215.171 295.199 215.171C293.726 214.924 292.486 214.558 291.444 214.107ZM283.226 201.375C285.608 197.239 289.31 194.565 293.059 192.868C299.208 190.085 305.423 189.967 305.423 189.967C306.633 189.943 307.634 190.905 307.658 192.115C307.683 193.325 306.72 194.326 305.511 194.35C305.511 194.35 300.162 194.464 294.867 196.862C291.502 198.384 286.399 203.97 286.399 203.97C285.1 203.117 284.055 202.249 283.226 201.375ZM278.86 187.11C278.9 186.739 279.035 186.372 279.271 186.05C286.069 176.761 300.983 176.162 300.983 176.162C302.193 176.123 303.206 177.072 303.246 178.281C303.285 179.49 302.336 180.504 301.126 180.543C301.126 180.543 296.507 180.702 291.549 182.543C288.72 183.595 286.399 184.826 286.399 184.826C283.658 185.054 280.986 185.994 278.86 187.11Z" fill="#F27F71"/>
<path fill-rule="evenodd" clip-rule="evenodd" d="M142.537 139.613C142.537 139.613 164.231 140.886 195.337 159.031C205.018 164.678 228.688 180.382 257.42 189.201C268.333 192.55 273.626 190.065 277.31 191.17L273.211 200.942C273.211 200.942 254.861 199.038 247.957 196.546C247.957 196.546 161.131 141.887 142.537 139.613Z" fill="black"/>
<path d="M226.013 592.806H20.4668V739.525H226.013V592.806Z" fill="#FFD798"/>
<path fill-rule="evenodd" clip-rule="evenodd" d="M60.6027 739.531H56.2191V592.806H60.6027V739.531ZM156.844 592.806V668.889L144.16 659.848L131.628 668.889V592.806H156.844ZM48.7291 592.806V643.629L38.6891 628.335L31.7964 634.801V592.806H48.7291Z" fill="#F8BB61"/>
<path fill-rule="evenodd" clip-rule="evenodd" d="M759.119 297.827H617.293V68.71H961.598V297.827H812.566V356.823H831.843V372.532H740.001V356.823H759.119V297.827Z" fill="#A3A8AE"/>
<path fill-rule="evenodd" clip-rule="evenodd" d="M952.513 68.71V297.827H803.481V356.823H822.758V372.532H740.001V356.823H759.119V297.827H617.293V68.71H952.513Z" fill="#E4E4E6"/>
<path d="M936.683 86.2529H634.471V274.774H936.683V86.2529Z" fill="white"/>
<path fill-rule="evenodd" clip-rule="evenodd" d="M803.461 356.35H810.88C810.491 356.692 809.982 356.899 809.428 356.899L759.099 356.35V352.516H803.461V356.35ZM803.461 302.249H759.099V297.865H803.461V302.249Z" fill="#A3A8AE"/>
<path d="M845.306 0H673.577V210.404H845.306V0Z" fill="#FFF3EB"/>
<path d="M802.953 67.6076C817.888 67.6076 829.996 55.5003 829.996 40.5651C829.996 25.63 817.888 13.5227 802.953 13.5227C788.018 13.5227 775.911 25.63 775.911 40.5651C775.911 55.5003 788.018 67.6076 802.953 67.6076Z" fill="#F27F71"/>
<path fill-rule="evenodd" clip-rule="evenodd" d="M781.027 56.5353C786.14 51.4366 793.433 48.2432 801.532 48.2432C810.403 48.2432 818.321 52.081 823.444 58.0608C818.485 63.8943 811.088 67.5968 802.841 67.5968C793.888 67.5968 785.953 63.2406 781.027 56.5353Z" fill="#FFCFC8"/>
<path d="M802.186 44.8762C807.413 44.8762 811.65 40.6392 811.65 35.4126C811.65 30.186 807.413 25.949 802.186 25.949C796.96 25.949 792.723 30.186 792.723 35.4126C792.723 40.6392 796.96 44.8762 802.186 44.8762Z" fill="#FFCFC8"/>
<path fill-rule="evenodd" clip-rule="evenodd" d="M792.723 35.4718V35.4126C792.723 30.1896 796.964 25.949 802.186 25.949C807.408 25.949 811.649 30.1896 811.649 35.4126V35.4647C805.232 35.5206 802.186 28.8449 802.186 28.8449C800.487 34.326 795.528 35.3491 792.723 35.4718Z" fill="black"/>
<path fill-rule="evenodd" clip-rule="evenodd" d="M823.243 186.038H704.996V192.757H823.243V186.038ZM823.243 171.817H704.996V178.535H823.243V171.817ZM823.243 158.015H704.996V164.733H823.243V158.015ZM818.586 139.227H690.754V150.14H818.586V139.227ZM823.243 118.952H704.996V125.67H823.243V118.952ZM823.243 104.73H704.996V111.449H823.243V104.73ZM823.243 90.9283H704.996V97.6467H823.243V90.9283ZM781.336 67.0667H690.754V77.9792H781.336V67.0667ZM765.352 46.7822H693.801V51.6589H765.352V46.7822ZM747.001 37.1552H693.801V42.0325H747.001V37.1552ZM761.182 26.8313H693.801V31.708H761.182V26.8313ZM768.607 16.812H693.801V21.6893H768.607V16.812Z" fill="#F27F71"/>
<path fill-rule="evenodd" clip-rule="evenodd" d="M757.625 263.686L747.398 252.035L760.342 240.672L750.846 229.853L798.745 217.277L780.067 263.142L770.57 252.323L757.625 263.686Z" fill="#F27F71"/>
<defs>
<linearGradient id="paint0_linear" x1="219.884" y1="443.297" x2="358.5" y2="562" gradientUnits="userSpaceOnUse">
<stop stop-color="#ED704C"/>
<stop offset="1" stop-color="#F27F71"/>
</linearGradient>
<linearGradient id="paint1_linear" x1="143.096" y1="169.82" x2="-136.389" y2="333.785" gradientUnits="userSpaceOnUse">
<stop stop-color="#D7441E"/>
<stop offset="0.58" stop-color="#EC6E5F"/>
<stop offset="0.8" stop-color="#E04B39"/>
<stop offset="1" stop-color="#D52914"/>
</linearGradient>
</defs>
</svg>
