<?xml version="1.0" encoding="utf-8"?>
<!-- Generator: Adobe Illustrator 25.2.0, SVG Export Plug-In . SVG Version: 6.00 Build 0)  -->
<svg version="1.1" id="Layer_1" xmlns="http://www.w3.org/2000/svg" xmlns:xlink="http://www.w3.org/1999/xlink" x="0px" y="0px"
	 viewBox="0 0 1500 1500" style="enable-background:new 0 0 1500 1500;" xml:space="preserve">
<style type="text/css">
	.st0{fill:#52B69A;}
	.st1{fill:#ED1C24;}
	.st2{fill:#1B1464;}
	.st3{fill:#999999;}
	.st4{fill:url(#SVGID_1_);}
	.st5{fill:url(#SVGID_2_);}
	.st6{fill:url(#SVGID_3_);stroke:url(#SVGID_4_);stroke-miterlimit:10;}
	.st7{fill:url(#SVGID_5_);stroke:url(#SVGID_6_);stroke-miterlimit:10;}
	.st8{fill:url(#SVGID_7_);}
	.st9{fill:url(#SVGID_8_);}
	.st10{fill:#666666;}
	.st11{fill:#1E6091;}
	.st12{fill:url(#SVGID_9_);stroke:url(#SVGID_10_);stroke-miterlimit:10;}
	.st13{fill:url(#SVGID_11_);stroke:url(#SVGID_12_);stroke-miterlimit:10;}
</style>
<g>
	
		<linearGradient id="SVGID_1_" gradientUnits="userSpaceOnUse" x1="3037.1296" y1="2889.7312" x2="3946.2756" y2="2375.2795" gradientTransform="matrix(0.808 -0.5892 0.5892 0.808 -3590.96 576.0538)">
		<stop  offset="0" style="stop-color:#662D91"/>
		<stop  offset="0.4811" style="stop-color:#A52686"/>
		<stop  offset="0.9949" style="stop-color:#ED1E79"/>
	</linearGradient>
	<linearGradient id="SVGID_2_" gradientUnits="userSpaceOnUse" x1="447.5308" y1="1036.6166" x2="1242.2849" y2="241.8624">
		<stop  offset="0" style="stop-color:#662D91"/>
		<stop  offset="0.4811" style="stop-color:#A52686"/>
		<stop  offset="0.9949" style="stop-color:#ED1E79"/>
	</linearGradient>
	<path style="fill:url(#SVGID_1_);stroke:url(#SVGID_2_);stroke-miterlimit:10;" d="M114.43,662.07
		C14.59,483.12,80.93,337.41,287.16,320.53c93.07-7.62,191.79,10.82,278.59,44.2c88.03,33.86,161.46,91.06,223.36,159.35
		c31.22,19.8,327.73-208.24,382.28-224.57c49.99-14.97,108.51-11.6,148.71,21.66c26.75,22.13,42.5,54.61,55.71,86.71
		c74.3,180.62,104.66,403.95,36.75,591.46c-114.57,316.35-513.78,291.31-760.4,159.62c-152.47-81.41-280.95-200.7-403.83-322.25
		C199.98,788.87,150.6,726.86,114.43,662.07z"/>
	<g>
		<path class="st0" d="M338.47,1204.15c-14.82,0-26.83-11.38-26.83-25.42V500.99c0-14.04,12.01-25.42,26.83-25.42
			s26.83,11.38,26.83,25.42v677.74C365.3,1192.77,353.29,1204.15,338.47,1204.15z"/>
		<path class="st1" d="M662.06,1095.32c-14.82,0-26.83-12.24-26.83-27.34v-729c0-15.1,12.01-27.34,26.83-27.34
			c14.82,0,26.83,12.24,26.83,27.34v729C688.89,1083.08,676.87,1095.32,662.06,1095.32z"/>
		<path class="st0" d="M959.98,1191.69c-14.82,0-26.83-12.07-26.83-26.95v-718.7c0-14.88,12.01-26.95,26.83-26.95
			c14.82,0,26.83,12.07,26.83,26.95v718.7C986.81,1179.62,974.8,1191.69,959.98,1191.69z"/>
		<path class="st1" d="M1264.99,1114.43c-14.82,0-26.83-11.26-26.83-25.15V418.48c0-13.89,12.01-25.15,26.83-25.15
			s26.83,11.26,26.83,25.15v670.79C1291.83,1103.16,1279.81,1114.43,1264.99,1114.43z"/>
		<path class="st0" d="M364.48,1114.46h-52.02c-42.26,0-76.85-34.58-76.85-76.84V645.73c0-42.26,34.58-76.84,76.85-76.84h52.02
			c42.26,0,76.85,34.58,76.85,76.84v391.88C441.33,1079.88,406.75,1114.46,364.48,1114.46z"/>
		<path class="st1" d="M688.07,964.54h-52.02c-42.26,0-76.84-34.58-76.84-76.84V495.81c0-42.26,34.58-76.85,76.84-76.85h52.02
			c42.26,0,76.85,34.58,76.85,76.85v391.88C764.91,929.96,730.33,964.54,688.07,964.54z"/>
		<path class="st0" d="M985.99,1078.03h-52.02c-42.26,0-76.84-34.58-76.84-76.85V609.3c0-42.26,34.58-76.84,76.84-76.84h52.02
			c42.26,0,76.85,34.58,76.85,76.84v391.88C1062.83,1043.45,1028.25,1078.03,985.99,1078.03z"/>
		<path class="st1" d="M1291,1016.05h-52.02c-42.26,0-76.84-34.58-76.84-76.85V547.32c0-42.26,34.58-76.84,76.84-76.84H1291
			c42.26,0,76.84,34.58,76.84,76.84V939.2C1367.85,981.47,1333.27,1016.05,1291,1016.05z"/>
	</g>
</g>
</svg>
