<?xml version="1.0" encoding="utf-8"?>
<!-- Generator: Adobe Illustrator 25.2.0, SVG Export Plug-In . SVG Version: 6.00 Build 0)  -->
<svg version="1.1" id="Layer_1" xmlns="http://www.w3.org/2000/svg" xmlns:xlink="http://www.w3.org/1999/xlink" x="0px" y="0px"
	 viewBox="0 0 1500 1500" style="enable-background:new 0 0 1500 1500;" xml:space="preserve">
<style type="text/css">
	.st0{fill:#52B69A;}
	.st1{fill:#ED1C24;}
	.st2{fill:#1B1464;}
	.st3{fill:#999999;}
	.st4{fill:url(#SVGID_1_);}
	.st5{fill:url(#SVGID_2_);}
	.st6{fill:url(#SVGID_3_);stroke:url(#SVGID_4_);stroke-miterlimit:10;}
	.st7{fill:url(#SVGID_5_);stroke:url(#SVGID_6_);stroke-miterlimit:10;}
	.st8{fill:url(#SVGID_7_);}
	.st9{fill:url(#SVGID_8_);}
	.st10{fill:#666666;}
	.st11{fill:#1E6091;}
	.st12{fill:url(#SVGID_9_);stroke:url(#SVGID_10_);stroke-miterlimit:10;}
	.st13{fill:url(#SVGID_11_);stroke:url(#SVGID_12_);stroke-miterlimit:10;}
</style>
<g>
	
		<linearGradient id="SVGID_1_" gradientUnits="userSpaceOnUse" x1="164.5733" y1="700.3041" x2="1401.0427" y2="0.6324" gradientTransform="matrix(0.9498 -0.2704 0.2661 0.9347 14.7072 731.8296)">
		<stop  offset="0" style="stop-color:#662D91"/>
		<stop  offset="0.4811" style="stop-color:#A52686"/>
		<stop  offset="0.9949" style="stop-color:#ED1E79"/>
	</linearGradient>
	<path class="st4" d="M232.58,1207.74c-6.53-4.64-13-9.35-19.43-14.13c-38.56-28.69-77.09-61.25-105.57-106.4
		c-28.48-45.15-45.34-105.47-33.59-154.28c7.62-31.66,26.03-55.04,45.02-75.73c92.43-100.7,210.15-152.79,331.53-188.45
		c32.5-9.55,373.47-84.41,383.18-50.58c-81.17-282.76-37.45-582.96,227.23-496.7c268.38,87.49,358.7,538.94,289.95,810.45
		C1209.52,1490.33,628.37,1488.96,232.58,1207.74z"/>
	<g id="XMLID_9_">
		<g>
			<polygon class="st2" points="1175.3,974.12 1175.3,1071.92 392.91,1071.92 392.91,387.27 490.71,387.27 490.71,974.12 			"/>
			<rect x="881.9" y="387.27" class="st0" width="195.6" height="488.99"/>
			<rect x="588.51" y="582.87" class="st0" width="195.6" height="293.4"/>
		</g>
	</g>
</g>
</svg>
